<svg id="レイヤー_1" data-name="レイヤー 1" xmlns="http://www.w3.org/2000/svg" viewBox="0 0 400 400"><defs><style>.cls-1{fill:none;}.cls-2{fill:#ebc028;}.cls-3{fill:#69b043;}.cls-4{fill:#1388b5;}.cls-5{fill:#d63b85;}</style></defs><title>logo_icon</title><rect class="cls-1" x="-0.36" y="-0.17" width="400" height="400"/><path d="M139.52,346.63c-3.1,10.22-4.55,16.25-2.09,17.31a1.65,1.65,0,0,0,.65.14c2.4,0,5.66-5.06,10.54-13.52,1.31-2.27,4.56-8.48,9-17.08-4.79.67-9.57,1.43-14.34,2.21C141.37,341,140.05,344.85,139.52,346.63Z"/><path d="M162.1,306.92c-1.24-.54-2.45-1.12-3.66-1.7s-2.35-1.18-3.51-1.8c-2,5.3-3.81,10.36-5.51,15,5.55-.85,11.19-1.62,16.9-2.22l3.24-6.48c-1.24-.42-2.48-.85-3.71-1.33S163.35,307.45,162.1,306.92Z"/><path d="M238.44,130.51c1.24.54,2.46,1.11,3.66,1.7s2.36,1.18,3.51,1.8C253.5,112.62,259.68,95.25,261,90.8c3.1-10.23,4.54-16.25,2.09-17.32a1.65,1.65,0,0,0-.66-.13c-2.4,0-5.66,5.05-10.53,13.51-2.33,4-10.76,20.42-21,40.81,1.24.42,2.48.86,3.72,1.33S237.2,130,238.44,130.51Z"/><path d="M231.12,94c-33.77,6-56,5-66-3a15.56,15.56,0,0,1-5.95-12c-1.16-22.72,40.6-48.34,72.61-50.88a2.81,2.81,0,1,0-.45-5.6c-39,3.1-79,32.28-77.77,56.76a21.12,21.12,0,0,0,8.06,16.16c11.46,9.13,34.49,10.48,70.43,4.15,1.48-.27,3-.52,4.49-.78l3.21-6.22C237,93,234.11,93.46,231.12,94Z"/><path d="M328.84,102.53c-5.56-12.71-23.72-17.24-58.76-14-.44,1.52-.9,3.06-1.37,4.61-.09.31-.21.69-.35,1.1,26.66-2.74,50-1.65,55.33,10.55,2.81,6.41,2.36,12.18-1.33,17.15-9.06,12.17-35.28,18.25-69.05,16.66a95.21,95.21,0,0,1,8,5.88c.81,0,1.63,0,2.43,0,30.76,0,53.91-6.8,63.15-19.23C331.78,118.67,332.47,110.81,328.84,102.53Z"/><path d="M133,290.56c-9.85-.28-21-.61-35.59.15-16.59.85-29.4,7.07-34.26,16.62a15.4,15.4,0,0,0,.69,15.76c5.86,9,20.62,13.6,40.46,12.52,10.8-.58,22.27-2.47,34.41-4.47,27.52-4.54,56-9.22,82,.16,34.35,12.39,42,33.48,42.11,33.68a2.8,2.8,0,0,0,2.66,1.91,2.81,2.81,0,0,0,2.66-3.71c-.33-1-8.44-23.79-45.52-37.17-27.38-9.88-57.88-4.85-84.79-.42-12,2-23.31,3.85-33.8,4.41-17.52.95-30.78-2.79-35.45-10a9.69,9.69,0,0,1-.4-10.15c3-6,12.41-12.68,29.55-13.56,14.36-.74,25.4-.42,35.14-.14,3.77.11,7.34.19,10.86.22q-3.74-2.72-7.14-5.74Z"/><path class="cls-2" d="M259.78,153.87c8.83,21.27,7.61,52.68-5,84l27.84,12A88.19,88.19,0,0,0,259.78,153.87Z"/><path class="cls-3" d="M244.13,242.09l-24.65-10.67L202.37,224l-33.23,76.8C193.24,307.38,225.51,282.29,244.13,242.09Z"/><path d="M153.21,202.74c-16.55,41.1-12.75,81.8,8.52,94.87L195,220.81Z"/><path d="M220.43,223l26.91,11.64c16.55-41.09,12.75-81.79-8.53-94.87l-33.23,76.8Z"/><path class="cls-4" d="M156.41,195.34l41.76,18.07,33.23-76.8C207.31,130.05,175,155.14,156.41,195.34Z"/><path class="cls-5" d="M145.8,199.54,118,187.5a88.18,88.18,0,0,0,22.79,96.06C131.93,262.29,133.16,230.88,145.8,199.54Z"/><path d="M206.8,130.94a88.17,88.17,0,0,0-85.62,49.15l27.83,12C163.2,161.46,185.26,139.07,206.8,130.94Z"/><path d="M193.74,306.49a88.2,88.2,0,0,0,85.63-49.15l-27.83-12C237.35,276,215.28,298.36,193.74,306.49Z"/></svg>