<svg id="レイヤー_1" data-name="レイヤー 1" xmlns="http://www.w3.org/2000/svg" viewBox="0 0 600 624"><defs><style>.cls-1{fill:none;}.cls-2{fill:#ebc028;}.cls-3{fill:#69b043;}.cls-4{fill:#1388b5;}.cls-5{fill:#d63b85;}</style></defs><title>logo_tate</title><rect class="cls-1" x="0.22" y="0.03" width="600" height="624"/><path d="M190.86,470.24c1.89-.55,3.6-.77,3.89.24.19.63.08,1.21.3,2s.58,1.06,1.71.73c1.64-.48,3.14-3.79,2.48-6.07-.73-2.53-3.44-3.38-7.84-2.1a30.41,30.41,0,0,0-7.66,3.74c2.2-8.45,2.31-10.41,3.94-12.8,1.85-2.6,1.81-3.68,1.37-5.2s-1.67-2-3.31-1.51-2.65,2.15-3.92,5.81c-1.81,5.05-2.89,10.3-4.64,17.94a22.92,22.92,0,0,1-3.76,1.65c-1.51.44-2.15-.34-4,.21A3.31,3.31,0,0,0,167,479c.52,1.77,2.28,2.22,6.06,1.11a18.67,18.67,0,0,0,2.61-.89c-2.57,13.77-4.63,29.32-2.51,36.65.91,3.16,2.72,4.69,4.61,4.14a2.76,2.76,0,0,0,1.92-3.3c-.34-1.14-1.27-1.55-1.75-3.19-1.9-6.58.6-23.9,3.86-38.15C185,473.05,188.09,471.05,190.86,470.24Z"/><path d="M375.87,454.45c-.3,1.82-.12,4.65,1.44,4.92s5.35-1,5.87-4.08c.44-2.6-.94-3.9-2.23-4.12A4.45,4.45,0,0,0,375.87,454.45Z"/><path d="M508.36,462.21c-7-2.64-14.56.71-27.3,11.94a132.35,132.35,0,0,0-22.9,25.72q-.71.42-1.53,1c-6.37,4.63-18.38,11.91-29.4,8.48a3.83,3.83,0,0,1-2.6-4.95c.39-1.25.75-2,3.16-1.77,8.31.66,21.47-3.23,23.45-9.65.74-2.39-1.39-5.26-3.77-6-6.3-2-16,.13-24.7,10.08a33.12,33.12,0,0,0,5.39-11.19c2.12-8.7,1.84-14.19-2.11-15.16-2.42-.6-3.71.84-4.15,2.64-.53,2.17,1.86,4,2.16,5.54a16.33,16.33,0,0,1-.58,6.23c-2.28,9.34-10.67,18.8-15.89,17.52-2.55-.63-2.63-4.72-1.29-10.22,1.6-6.52,5.59-9.61,6.12-11.78s-1.64-3.25-2.91-3.57-3.34,1.49-5.11,4.31c-5.46,8-14.93,16.93-19.14,15.9-.89-.22-1-.92-.71-2.07,1.28-5.25,10.3-16.18,11.11-19.51.34-1.4-1.29-3.57-2.31-3.82-1.91-.47-3.4.11-5.23,3.73-.54,1.07-1.54,2.93-2.71,5.13l-.41.36c-5.71,5.44-16.62,13.34-20.37,12.7a2.41,2.41,0,0,1-1.89-3c.48-2.86,5.89-11.29,9.57-15.74,1.49-1.75,3-2.83,3.25-4.26s-1.42-2.64-2.59-2.84c-1.68-.29-3.19,1.59-5,3.82-.31.41-1,1.35-1.93,2.59a13.37,13.37,0,0,0-2.44,2.31c-5.28,5.86-14.13,14.83-20.27,14.27-4.31-.39-6.69-4.58-6.55-6.15.1-1.05,16.58-5.62,17.38-14.41.25-2.75-1.64-5.17-3.6-5.35-4.18-.38-10.16,1.71-20,10.06-2,1.67-3,2.51-3.38,2.47-.14,0-.12-.14-.11-.27.13-1.45,3.08-6.33,3.79-6.93,2.84-2.25,13.78-8.12,23.22-19.29s12.24-18.71,12.56-22.25c.22-2.36-2.54-5.39-4.89-5.6-6.92-.64-15.77,8.33-22.71,19.47-3.68,5.84-9.54,17-14.41,27.19a15.38,15.38,0,0,0-2,2.46c-4.68,6.46-12.31,15.1-17,15.24-1.18,0-1.75-1.4-1.8-3.11a17,17,0,0,1,2.15-7.58c2.61-5.34,5.9-9.91,5.85-11.62s-1.39-2.73-3.49-2.67-2.81,2.85-3.86,2.87c-.52,0-3-2.94-5.46-2.87-4.43.18-9.39,2.59-13.67,6.27a2,2,0,0,0-1-.13c-1.42.22-2.27,1.68-3.53,3.87-3.72,7-9.69,17.46-14,18.12-1.56.23-2.1-.75-2.38-2.57-.77-5.08,1.33-14.86.92-17.59a4.86,4.86,0,0,0-5.36-3.85c-4.15.64-10.39,6.79-13.76,13.43a53.12,53.12,0,0,0-.14-8c-.52-3.39-4.6-4.09-6.94-3.74-3.5.54-9.59,6.8-12.76,13,.25-1.91,2.68-11.2,2.35-13.42-.3-2-1.93-2.23-3.49-2-1,.16-2.25,1.81-2.72,4.82-.27,1.68-.57,3.41-.87,5.16-1.85,1.39-5.32,4.72-9.57,5.76-2,.5-2.75-2.44-3-3.46-.46-1.93-3.19-3.7-7.91-2.54-8.91,2.18-16.09,16-13.19,27.9,1.33,5.49,5.55,7.31,9.12,6.43,8.92-2.18,12.32-13.72,13.13-22.05a31.24,31.24,0,0,0,10.06-4.53c-1.71,9.24-3.3,17.39-3.11,18.65a3,3,0,0,0,3.16,2.45c1.94-.3,1.74-2.53,2.53-5.19a76.72,76.72,0,0,1,4.33-11.71c3.55-7.21,9.53-13.32,11.08-13.55a2,2,0,0,1,2.39,1.76c.59,3.91-3,19.64-2.76,21.21s2.42,2.82,3.72,2.62,1.91-2.29,2.75-5.48c1.18-5.37,9.7-20.93,13.85-21.56,1-.16,1.42.58,1.56,1.49s-1.32,10.59-.51,15.93c.67,4.43,3.25,6.57,6.75,6,2.76-.42,5.81-3.08,8.68-6.47a1.34,1.34,0,0,1,0,.2c.09,3.16,2.76,5.06,4.08,5,3-.08,7-2.83,13-8.4,2.81-2.72,4.83-5.28,5.62-5.3.26,0,.28.39.3,1.18,0,1.18-.18,3-.14,4.48a5.85,5.85,0,0,0,6.34,6c4.1-.11,9.54-4.24,14.52-9.2a32.31,32.31,0,0,0-2.21,6.88c-.28,3,1.75,3.87,3.06,4s3.72-1.77,3.81-2.82c.29-3.15,4.11-7.55,9-12.13,7.81-7.75,12.86-9.66,14.43-9.52a2,2,0,0,1,1.63,2.27c-.14,1.57-3,3.69-5.75,5.29-6.54,3.89-11.39,3.71-11.54,5.29-.26,2.88,3.63,12.23,10.68,12.87,5.35.49,10.91-2.85,15.95-7.09a11.94,11.94,0,0,0-.62,2.15c-.72,4.29,2,7.15,4.19,7.52,4.55.77,12.56-3.47,19.51-8.27a37.19,37.19,0,0,0-2.44,5.94c-1,4.09,2.13,6.22,4.29,6.75,4.21,1,12.3-3.89,17.27-8.77-.77,5.37-.23,12,5.63,13.45,4.22,1,9.34-1.65,13.72-6a5.7,5.7,0,0,1-.25,1.39c-1.24,4,1.15,9.18,5,10.39,10.74,3.35,21.37-.66,29.45-5.1a71,71,0,0,0-3.5,7.81c-1.47,3.94-.6,5,.63,5.44s4.47-.71,5.2-2.68,5.18-5.23,8.6-6.89c8.84-4.55,16-7.62,18.71-6.6a2.16,2.16,0,0,1,1.47,2.81c-2.2,5.91-13.12,13.76-18,11.91-1.11-.42-1-1.2-3-2a2.82,2.82,0,0,0-3.75,1.4c-.73,2-.24,4.41,3.94,6,8.84,3.33,23.36-6.67,27.22-17,1.25-3.33.16-6.41-2.79-7.52-6.88-2.59-16.78,1.42-25.05,6.32-1.23.67-2.17,1.3-2.9,1-.13-.05,0-.29.06-.54.6-1.6,4.28-7,5.94-8,24.28-6.89,41.43-20.54,45.2-30.65A5.24,5.24,0,0,0,508.36,462.21Zm-63.91,29.2c1,.31,1.42.72,1.11,1.72-.81,2.64-12.89,6.6-17.31,5.36C431.06,496.06,440.56,490.2,444.45,491.41ZM343.78,445.12c6.17-9.88,12.89-17.2,16-16.91a1.6,1.6,0,0,1,1.66,2c-.12,1.31-3.1,8.05-10.64,17.14a98.74,98.74,0,0,1-17.14,16C333.86,463,337.9,454.76,343.78,445.12Zm-146.4,60.17c-1.65.41-3.52-.62-4.08-2.92-2-8.32,3-19.31,8.48-20.65a.35.35,0,0,1,.48.29,24.9,24.9,0,0,0,.3,2.91c.4,1.66,2.47,1.83,2.56,2.22C206.05,491,202.35,504.08,197.38,505.29Zm84.87-16.78a1.52,1.52,0,0,1-1.62-1.54c-.18-6.45,11-19.15,16.66-19.31a1.41,1.41,0,0,1,1.48,1.54c0,1.45,2.26,1,2.28,1.65C301.11,473.09,284.48,488.45,282.25,488.51Zm223.5-19.69c-1.84,4.93-17.79,19.88-35.94,24.58a146.08,146.08,0,0,1,15.6-16.63c9.79-9,17.22-11.23,19.19-10.49A1.75,1.75,0,0,1,505.75,468.82Z"/><path d="M159.4,513a53.31,53.31,0,0,0-10.68,5.58c-5-13.86-2.15-45.59,3.3-57.53.94-2,3.46-5.47,2.47-8.19,0-.13,0-.23,0-.33,7-3.63,12.23-4.5,16.28-.64a2.86,2.86,0,0,0,3.92-4.16c-10-9.46-23.29-.65-36.19,7.86-5.56,3.68-11.31,7.47-16.93,10-11,5-21.16,2.44-25.19-6.42-6.13-13.47,2.89-41.87,52.83-64.91,50.16-23.14,79.75-22.53,114-21.83l6.72.13a96.56,96.56,0,0,1-9.11-5.9c-33.94-.68-63.91-.72-114,22.4C123.69,399.75,106.47,413,97,427.28,88.9,439.46,86.78,452,91.15,461.57c3.63,8,11,12.3,19.63,12.3a31.77,31.77,0,0,0,13.11-3c6-2.74,12-6.66,17.71-10.45,2.2-1.46,4.26-2.79,6.22-4-.37.88-.74,1.79-1.13,2.71-6.73,16.47-8.76,44-3.34,63.15a66.42,66.42,0,0,1-8.61,4c-2.83,1-3.71.93-6-.34a3.66,3.66,0,0,0-2.92-.34c-1.6.59-2.75,2.41-2.21,3.9,1.83,5.07,8.59,3.3,11.55,2.22a59.51,59.51,0,0,0,10.64-5.29,3.85,3.85,0,0,0,2.4-.31,3.76,3.76,0,0,0,2.17-2.48c3.22-2.29,6.11-4.33,9.31-5.5s6.39-1.63,6.93-.15a2.92,2.92,0,0,0,3.5,2c2.46-.9,2.7-3,2-4.93C170.9,511.6,165.81,510.65,159.4,513Z"/><path d="M278.93,163.15c11.56,9.24,34.8,10.62,71.06,4.2l4.47-.78c1.18-2.31,2.27-4.43,3.26-6.34-2.83.46-5.71,1-8.72,1.48-34.08,6-56.45,5-66.52-3a15.71,15.71,0,0,1-6-12.19c-1.16-23,40.95-48.93,73.24-51.5a2.86,2.86,0,0,0-.45-5.71c-39.4,3.14-79.74,32.7-78.48,57.5A21.41,21.41,0,0,0,278.93,163.15Z"/><path d="M381.87,212.9c31.05,0,54.4-6.89,63.73-19.47,5-6.7,5.66-14.68,2-23.06-4.19-9.61-15.19-18.19-59.27-14.16-.42,1.46-.86,3-1.36,4.66l-.35,1.11c26.87-2.77,50.38-1.66,55.76,10.68,2.83,6.49,2.37,12.32-1.35,17.35-9.14,12.33-35.55,18.51-69.63,16.9a97.25,97.25,0,0,1,8.05,6C380.25,212.87,381.08,212.9,381.87,212.9Z"/><path class="cls-2" d="M372.83,307.46l28.08,12.19a89.56,89.56,0,0,0-23-97.29C386.82,243.91,385.59,275.72,372.83,307.46Z"/><path class="cls-3" d="M286.47,371.19c24.31,6.64,56.87-18.77,75.66-59.48L320,293.41Z"/><path d="M270.4,271.86c-16.7,41.62-12.86,82.84,8.6,96.08l33.53-77.78Z"/><path d="M365.36,304.21c16.7-41.62,12.86-82.83-8.6-96.08l-33.53,77.78Z"/><path class="cls-4" d="M349.29,204.89c-24.31-6.64-56.87,18.76-75.66,59.47l42.13,18.3Z"/><path class="cls-5" d="M262.93,268.62l-28.08-12.2a89.56,89.56,0,0,0,23,97.29C248.94,332.17,250.17,300.36,262.93,268.62Z"/><path d="M324.47,199.15a88.9,88.9,0,0,0-86.38,49.77l28.07,12.2C280.48,230.06,302.73,207.38,324.47,199.15Z"/><path d="M311.29,376.93a88.93,88.93,0,0,0,86.39-49.78L369.6,315C355.28,346,333,368.7,311.29,376.93Z"/><path d="M356.39,198.71c1.25.54,2.47,1.13,3.69,1.72s2.38,1.2,3.54,1.82c8-21.66,14.19-39.25,15.55-43.75,3.13-10.36,4.59-16.47,2.11-17.54a1.51,1.51,0,0,0-.66-.14c-2.42,0-5.71,5.12-10.63,13.69-2.34,4.08-10.85,20.67-21.13,41.33,1.25.42,2.5.86,3.75,1.34S355.13,198.16,356.39,198.71Z"/><path d="M279.37,377.36c-1.25-.54-2.47-1.13-3.69-1.72s-2.38-1.19-3.54-1.82c-8,21.66-14.19,39.25-15.55,43.76-3.13,10.36-4.59,16.46-2.11,17.54a1.65,1.65,0,0,0,.66.13c2.42,0,5.71-5.12,10.63-13.68,2.34-4.09,10.85-20.68,21.13-41.34-1.25-.42-2.5-.86-3.75-1.34S280.63,377.91,279.37,377.36Z"/><path d="M243.1,528.2c-2.16,1.59-4.43,2.82-5.36,2.82a1.58,1.58,0,0,1-1.55-1.66c0-.92.39-1.08,2.27-2a21.08,21.08,0,0,0,7.89-7c.67-1.1.86-1.4,1.6-1.4a1.72,1.72,0,0,1,1.75,1.51c0,1.26-2.46,4-3.46,5v9.47c0,.81-.56,1.26-1.56,1.26s-1.58-.45-1.58-1.26Z"/><path d="M260.77,523.77a43.55,43.55,0,0,1,4.84,2c1.58.82,1.9,1.14,1.9,1.94a1.67,1.67,0,0,1-1.53,1.78c-.45,0-.61-.1-2.1-.92-.65-.37-1.94-.93-3.11-1.46v7.66c0,.82-.56,1.27-1.58,1.27s-1.58-.45-1.58-1.27V520.26c0-.82.56-1.27,1.58-1.27s1.58.45,1.58,1.27Z"/><path d="M287,520.77c.92,0,1.21.05,1.53.26a1.56,1.56,0,0,1,.69,1.36c0,1.89-3.54,6-6.44,8.07,1.21,1.37,2.08,2.39,2.08,3.2a1.88,1.88,0,0,1-1.86,1.62c-.42,0-.72-.17-1.11-.71a34.68,34.68,0,0,0-5.23-5.66c-.87-.73-1.06-1-1.06-1.49a1.85,1.85,0,0,1,1.73-1.67c.65,0,1.19.51,3.42,2.56a16,16,0,0,0,4.32-4.44c0-.13-.09-.17-.45-.17H274c-.74,0-1.17-.52-1.17-1.48s.43-1.45,1.17-1.45Z"/><path d="M300.44,522l-.15-1.47a2.3,2.3,0,0,1,0-.36c0-.82.6-1.29,1.64-1.29a1.21,1.21,0,0,1,1.4,1.23l.15,1.59,4.48-.46a1.28,1.28,0,0,1,1.51,1.43,1.21,1.21,0,0,1-1.23,1.39l-4.49.45.26,2.74,5.53-.54c.56-.06,1.64,0,1.64,1.49a1.17,1.17,0,0,1-1.17,1.33l-5.72.56.45,4.58a2.18,2.18,0,0,1,0,.35c0,.84-.58,1.29-1.64,1.29-.89,0-1.28-.39-1.38-1.4l-.44-4.52-5.47.54c-.91.09-1.64-.22-1.64-1.55a1.19,1.19,0,0,1,1.17-1.27l5.64-.56-.26-2.73-4.23.43c-.79.08-1.67-.13-1.67-1.47,0-.86.36-1.24,1.29-1.33Z"/><path d="M323.05,521.7v-1.59c0-.8.56-1.25,1.56-1.25s1.55.45,1.55,1.25v1.59H330c1.67,0,2.34.58,2.34,2a16.2,16.2,0,0,1-1.32,6,12.6,12.6,0,0,1-4.61,5.25,6.53,6.53,0,0,1-3.09,1.34,1.67,1.67,0,0,1-1.6-1.76c0-.61.26-.93,1.08-1.29a9.62,9.62,0,0,0,5.1-4.35,10.39,10.39,0,0,0,1.09-4c0-.3-.09-.36-.57-.36h-8.06c-.35,0-.43.08-.43.49v2.52c0,.78-.55,1.23-1.52,1.23s-1.55-.45-1.55-1.23v-3.59c0-1.62.63-2.24,2.25-2.24Z"/><path d="M343.07,532.07v-5.55h-3.59c-.67,0-1.06-.49-1.06-1.33s.37-1.34,1.06-1.34h10.08c.67,0,1.06.48,1.06,1.34s-.39,1.33-1.06,1.33H345.9v5.55h4.41c.7,0,1.09.48,1.09,1.36s-.39,1.36-1.09,1.36h-11.6c-.7,0-1.08-.48-1.08-1.36s.4-1.36,1.08-1.36Z"/><path d="M371.24,521.1a1.71,1.71,0,0,1,.65,1.46c0,.56-.46,8.26-8.71,12.72a5.25,5.25,0,0,1-2.19.77,1.75,1.75,0,0,1-1.64-1.76c0-.75.33-1.1,1.53-1.64a12.53,12.53,0,0,0,6.23-5.38,10.34,10.34,0,0,0,1.24-3.33c0-.17-.09-.22-.39-.22H357.9c-.76,0-1.19-.54-1.19-1.51s.43-1.5,1.19-1.5h11.59A2.49,2.49,0,0,1,371.24,521.1Zm2.06,1.35c-.37,0-.48-.11-.81-.71-.17-.32-.53-.92-.77-1.27a1,1,0,0,1-.22-.56,1.06,1.06,0,0,1,1.08-.94c.37,0,.58.19,1,.84a4,4,0,0,1,.78,1.67A1,1,0,0,1,373.3,522.45Zm2.16-1.32c-.37,0-.48-.12-.81-.71-.17-.32-.53-.92-.77-1.27a.92.92,0,0,1,.86-1.5c.37,0,.57.19,1,.84a4.09,4.09,0,0,1,.78,1.67A1,1,0,0,1,375.46,521.13Z"/></svg>