<svg id="レイヤー_1" data-name="レイヤー 1" xmlns="http://www.w3.org/2000/svg" viewBox="0 0 800 350"><defs><style>.cls-1{fill:none;}.cls-2{fill:#ebc028;}.cls-3{fill:#69b043;}.cls-4{fill:#1388b5;}.cls-5{fill:#d63b85;}</style></defs><title>logo_yoko</title><rect class="cls-1" x="1" y="0.33" width="798" height="348"/><path class="cls-2" d="M192.34,147.34c5.93,14.28,5.11,35.38-3.38,56.42l18.69,8.09A59.23,59.23,0,0,0,192.34,147.34Z"/><path class="cls-3" d="M181.83,206.58l-16.55-7.16-11.49-5L131.48,246C147.66,250.42,169.32,233.57,181.83,206.58Z"/><path d="M120.78,180.16c-11.12,27.6-8.56,54.93,5.72,63.71l22.32-51.57Z"/><path d="M165.92,193.79,184,201.61c11.11-27.6,8.56-54.92-5.73-63.7l-22.32,51.56Z"/><path class="cls-4" d="M122.93,175.19l28,12.13,22.32-51.57C157.11,131.35,135.44,148.2,122.93,175.19Z"/><path class="cls-5" d="M115.81,178l-18.69-8.09a59.22,59.22,0,0,0,15.3,64.51C106.49,220.15,107.31,199.05,115.81,178Z"/><path d="M156.77,132a59.22,59.22,0,0,0-57.5,33L118,173C127.49,152.44,142.3,137.4,156.77,132Z"/><path d="M148,249.82a59.19,59.19,0,0,0,57.5-33l-18.68-8.08C177.28,229.33,162.46,244.37,148,249.82Z"/><path d="M111.58,276.78c-2.08,6.86-3,10.91-1.4,11.62a1,1,0,0,0,.44.1c1.61,0,3.8-3.4,7.08-9.08.87-1.52,3.06-5.69,6-11.47-3.22.45-6.43,1-9.64,1.48C112.83,273,112,275.59,111.58,276.78Z"/><path d="M126.75,250.11c-.83-.36-1.65-.75-2.46-1.14s-1.58-.79-2.35-1.21c-1.32,3.56-2.56,7-3.7,10.1,3.72-.57,7.51-1.09,11.34-1.49l2.18-4.35c-.83-.29-1.67-.58-2.49-.89S127.59,250.47,126.75,250.11Z"/><path d="M178,131.66c.83.36,1.65.75,2.46,1.14s1.58.79,2.36,1.21c5.3-14.37,9.44-26,10.35-29,2.08-6.86,3-10.91,1.4-11.62a1,1,0,0,0-.44-.1c-1.61,0-3.8,3.4-7.07,9.08-1.56,2.71-7.22,13.71-14.07,27.4.84.29,1.67.58,2.5.9S177.18,131.3,178,131.66Z"/><path d="M173.09,107.14c-22.67,4-37.57,3.32-44.28-2a10.46,10.46,0,0,1-4-8.09c-.77-15.25,27.27-32.46,48.76-34.16a1.88,1.88,0,0,0,1.73-2,1.86,1.86,0,0,0-2-1.73c-26.21,2.08-53.06,21.67-52.22,38.11a14.2,14.2,0,0,0,5.41,10.85c7.69,6.13,23.16,7,47.29,2.78l3-.52c.78-1.52,1.5-2.92,2.16-4.17C177,106.47,175.1,106.78,173.09,107.14Z"/><path d="M238.71,112.87c-3.73-8.53-15.92-11.57-39.45-9.4l-.92,3.09-.24.74c17.9-1.84,33.57-1.11,37.16,7.08,1.88,4.31,1.58,8.18-.9,11.51-6.08,8.18-23.69,12.26-46.37,11.2a62.11,62.11,0,0,1,5.36,3.94l1.63,0c20.65,0,36.2-4.57,42.41-12.91C240.69,123.71,241.15,118.43,238.71,112.87Z"/><path d="M107.24,239.13c-6.62-.19-14.11-.41-23.9.1-11.14.57-19.74,4.75-23,11.16A10.36,10.36,0,0,0,60.79,261c3.94,6.06,13.85,9.14,27.17,8.41a218.68,218.68,0,0,0,23.11-3c18.48-3.05,37.58-6.19,55,.1,23.06,8.32,28.23,22.49,28.28,22.62a1.87,1.87,0,0,0,1.78,1.29,2.16,2.16,0,0,0,.61-.1,1.9,1.9,0,0,0,1.18-2.4c-.22-.65-5.66-16-30.57-24.95-18.38-6.64-38.86-3.26-56.93-.29a214.8,214.8,0,0,1-22.7,3c-11.76.64-20.67-1.87-23.8-6.69a6.51,6.51,0,0,1-.27-6.82c2-4,8.33-8.51,19.84-9.1,9.64-.5,17-.29,23.6-.1,2.53.08,4.93.13,7.29.15q-2.51-1.83-4.79-3.85Z"/><path d="M337.57,167.16c2.38-.69,4.53-1,4.9.3.23.79.1,1.52.38,2.47s.73,1.34,2.15.92c2.07-.6,4-4.76,3.13-7.61-.92-3.17-4.33-4.25-9.88-2.64a39,39,0,0,0-9.65,4.69c2.77-10.6,2.92-13,5-16,2.32-3.26,2.27-4.62,1.72-6.52s-2.1-2.49-4.16-1.89-3.35,2.69-4.94,7.28c-2.29,6.34-3.64,12.92-5.85,22.51a29,29,0,0,1-4.73,2.06c-1.9.55-2.7-.42-5.08.27a4.12,4.12,0,0,0-3,5.16c.64,2.22,2.87,2.78,7.63,1.4a25.4,25.4,0,0,0,3.28-1.13c-3.24,17.28-5.83,36.78-3.16,46,1.15,4,3.43,5.88,5.81,5.19a3.45,3.45,0,0,0,2.41-4.14c-.42-1.42-1.6-1.94-2.2-4-2.39-8.25.76-30,4.86-47.85C330.17,170.69,334.08,168.17,337.57,167.16Z"/><path d="M570.53,147.36c-.39,2.28-.15,5.83,1.81,6.16s6.73-1.2,7.39-5.11c.56-3.26-1.18-4.89-2.81-5.17A5.6,5.6,0,0,0,570.53,147.36Z"/><path d="M737.35,157.09c-8.82-3.31-18.33.89-34.37,15a166.41,166.41,0,0,0-28.84,32.25c-.6.36-1.23.78-1.92,1.24-8,5.81-23.15,14.95-37,10.64a4.78,4.78,0,0,1-3.26-6.2c.49-1.57.94-2.47,4-2.22,10.46.83,27-4.06,29.52-12.11.93-3-1.76-6.59-4.75-7.52-7.93-2.46-20.11.15-31.1,12.64a41.53,41.53,0,0,0,6.79-14c2.67-10.91,2.32-17.8-2.66-19-3-.74-4.68,1.07-5.23,3.31-.67,2.73,2.35,5,2.72,7,.41,1.8,0,4.93-.73,7.82-2.86,11.71-13.43,23.57-20,22-3.21-.78-3.31-5.91-1.63-12.81,2-8.18,7-12.05,7.71-14.78s-2.06-4.07-3.67-4.47-4.2,1.86-6.42,5.4c-6.89,10-18.81,21.24-24.11,19.95-1.12-.28-1.25-1.16-.89-2.61,1.61-6.57,13-20.29,14-24.46.43-1.76-1.63-4.48-2.91-4.79-2.41-.59-4.29.14-6.59,4.68-.68,1.33-1.94,3.68-3.42,6.43-.17.15-.33.28-.51.45-7.19,6.82-20.92,16.73-25.65,15.93A3,3,0,0,1,554,193c.61-3.59,7.42-14.16,12-19.74,1.88-2.2,3.79-3.55,4.09-5.34s-1.78-3.32-3.25-3.57c-2.12-.36-4,2-6.34,4.79-.39.51-1.29,1.69-2.43,3.26a16.58,16.58,0,0,0-3.08,2.89c-6.64,7.35-17.78,18.6-25.51,17.9-5.43-.5-8.43-5.75-8.25-7.72.12-1.31,20.87-7,21.88-18.07.31-3.45-2.06-6.49-4.53-6.71-5.26-.48-12.8,2.15-25.2,12.62-2.51,2.09-3.77,3.14-4.26,3.09-.16,0-.15-.18-.13-.34.16-1.81,3.87-7.94,4.77-8.68,3.58-2.83,17.35-10.19,29.24-24.2C555,129,558.45,119.66,558.86,115.22c.27-3-3.2-6.76-6.16-7-8.72-.79-19.86,10.46-28.6,24.42-4.63,7.33-12,21.34-18.14,34.11a19.89,19.89,0,0,0-2.49,3.09c-5.88,8.09-15.5,18.94-21.44,19.11-1.49,0-2.2-1.76-2.26-3.9-.07-2.48.83-5.81,2.71-9.5,3.28-6.7,7.42-12.44,7.36-14.58-.06-2-1.75-3.43-4.39-3.35-2.81.08-3.54,3.57-4.86,3.61-.66,0-3.74-3.7-6.88-3.61-5.57.22-11.82,3.24-17.22,7.87a2.28,2.28,0,0,0-1.3-.17c-1.8.27-2.86,2.1-4.44,4.85-4.69,8.74-12.21,21.91-17.6,22.73-1.95.3-2.64-.93-3-3.22-1-6.37,1.68-18.64,1.15-22.07s-4.13-5.21-6.75-4.82c-5.22.8-13.07,8.51-17.32,16.84-.06-1.49.41-6.08-.18-10-.65-4.25-5.79-5.14-8.73-4.69-4.41.67-12.07,8.52-16.07,16.31.31-2.39,3.38-14,2.95-16.82-.37-2.45-2.43-2.81-4.38-2.51-1.31.2-2.83,2.27-3.43,6-.35,2.11-.72,4.29-1.1,6.48-2.33,1.75-6.7,5.92-12,7.23-2.57.62-3.47-3.07-3.78-4.35-.59-2.41-4-4.63-10-3.18-11.23,2.74-20.26,20.07-16.62,35,1.69,6.9,7,9.17,11.49,8.07,11.23-2.73,15.52-17.21,16.54-27.66a39.38,39.38,0,0,0,12.66-5.68c-2.15,11.59-4.15,21.82-3.92,23.39a3.77,3.77,0,0,0,4,3.07c2.45-.37,2.19-3.17,3.19-6.5a96.59,96.59,0,0,1,5.45-14.7c4.47-9,12-16.69,13.95-17a2.5,2.5,0,0,1,3,2.22c.75,4.9-3.77,24.63-3.47,26.59.28,1.79,3.05,3.54,4.68,3.3,1.47-.23,2.41-2.88,3.47-6.88,1.48-6.74,12.21-26.25,17.44-27.05,1.3-.19,1.78.73,1.95,1.88s-1.65,13.28-.63,20c.84,5.55,4.09,8.23,8.5,7.56,3.46-.53,7.3-3.86,10.93-8.12,0,.08,0,.17,0,.25.11,4,3.48,6.35,5.14,6.3,3.8-.11,8.82-3.55,16.39-10.54,3.54-3.41,6.09-6.62,7.09-6.65.32,0,.34.49.37,1.48,0,1.49-.23,3.81-.18,5.63.12,4.12,2.86,7.68,8,7.54s12-5.33,18.28-11.54c-1.61,4-2.64,7.08-2.78,8.63-.34,3.78,2.21,4.84,3.86,5s4.68-2.23,4.8-3.54c.36-3.95,5.17-9.48,11.34-15.22,9.84-9.71,16.19-12.12,18.17-11.94a2.56,2.56,0,0,1,2.06,2.85c-.18,2-3.74,4.63-7.24,6.63-8.24,4.89-14.35,4.66-14.53,6.63-.34,3.62,4.56,15.35,13.44,16.16,6.74.61,13.74-3.58,20.08-8.9a14.72,14.72,0,0,0-.77,2.69c-.91,5.38,2.5,9,5.27,9.44,5.72,1,15.81-4.36,24.57-10.37a46.4,46.4,0,0,0-3.08,7.45c-1.26,5.13,2.68,7.79,5.41,8.46,5.29,1.3,15.48-4.88,21.74-11-1,6.74-.29,15.07,7.09,16.88,5.31,1.3,11.76-2.07,17.28-7.57a7,7,0,0,1-.32,1.74c-1.56,5.05,1.45,11.52,6.34,13,13.52,4.2,26.9-.83,37.08-6.4a89.46,89.46,0,0,0-4.41,9.79c-1.86,4.95-.76,6.25.79,6.83s5.62-.89,6.55-3.37,6.52-6.55,10.83-8.64c11.13-5.7,20.15-9.55,23.56-8.27a2.7,2.7,0,0,1,1.85,3.52c-2.78,7.42-16.52,17.26-22.71,14.94-1.39-.53-1.2-1.51-3.82-2.5a3.56,3.56,0,0,0-4.72,1.76c-.93,2.48-.31,5.53,5,7.5,11.13,4.18,29.41-8.37,34.28-21.36,1.57-4.17.2-8-3.51-9.43-8.66-3.25-21.13,1.78-31.55,7.93-1.55.83-2.72,1.62-3.65,1.27-.16,0,0-.37.08-.67.75-2,5.39-8.74,7.48-10.07,30.57-8.65,52.16-25.77,56.91-38.46A6.54,6.54,0,0,0,737.35,157.09Zm-80.47,36.62c1.26.39,1.79.9,1.4,2.17-1,3.31-16.23,8.27-21.8,6.72C640,199.54,652,192.19,656.88,193.71ZM530.13,135.65c7.76-12.39,16.23-21.57,20.18-21.21A2,2,0,0,1,552.4,117c-.16,1.65-3.91,10.09-13.41,21.5a124.28,124.28,0,0,1-21.57,20.09C517.63,158.05,522.72,147.74,530.13,135.65ZM345.79,211.13c-2.09.51-4.45-.79-5.15-3.67-2.54-10.43,3.78-24.22,10.68-25.9a.44.44,0,0,1,.6.37,30.85,30.85,0,0,0,.38,3.64c.51,2.09,3.11,2.3,3.23,2.79C356.7,193.17,352,209.6,345.79,211.13Zm106.86-21.06a1.9,1.9,0,0,1-2-1.92c-.23-8.09,13.87-24,21-24.22a1.77,1.77,0,0,1,1.87,1.93c.05,1.82,2.84,1.24,2.87,2.07C476.4,170.73,455.45,190,452.65,190.07Zm281.41-24.69c-2.32,6.18-22.4,24.93-45.24,30.83a184.59,184.59,0,0,1,19.63-20.86c12.33-11.25,21.69-14.09,24.16-13.16A2.19,2.19,0,0,1,734.06,165.38Z"/><path d="M271.6,148.79c-7,4.61-14.17,9.56-21.32,12.58-6,2.54-8.23-1.55-9.61,2.56s.91,6.28,3.63,6.93,5.93-1.59,8.94-3c7.59-3.43,15.07-8.35,22.3-13.11,2.77-1.82,5.37-3.5,7.84-5-.46,1.11-.93,2.25-1.42,3.4-8.48,20.66-11,55.16-4.21,79.22a86.6,86.6,0,0,1-10.84,5c-3.57,1.3-4.67,1.17-7.53-.42a4.57,4.57,0,0,0-3.67-.42c-2,.73-3.47,3-2.79,4.88,2.31,6.36,10.82,4.14,14.54,2.79a76,76,0,0,0,13.4-6.63,4.91,4.91,0,0,0,3-.4,4.74,4.74,0,0,0,2.74-3.11c4.05-2.88,7.69-5.43,11.72-6.9s8-2.05,8.72-.18,2.7,3.06,4.4,2.44c3.11-1.13,3.4-3.7,2.5-6.19-1.52-4.19-7.93-5.37-16-2.43a67.74,67.74,0,0,0-13.44,7c-6.33-17.38-2.71-57.18,4.14-72.16,1.18-2.54,4.36-6.85,3.12-10.27,0-.16,0-.28-.06-.42,8.83-4.54,15.4-5.64,20.51-.8a3.59,3.59,0,0,0,4.94-5.21C304.64,127.06,287.84,138.11,271.6,148.79Z"/><path d="M403.34,239.86c-2.71,2-5.57,3.54-6.74,3.54a2,2,0,0,1-2-2.09c0-1.15.49-1.35,2.86-2.46a26.5,26.5,0,0,0,9.93-8.76c.85-1.38,1.08-1.76,2-1.76a2.16,2.16,0,0,1,2.2,1.9c0,1.57-3.09,5-4.36,6.21v11.88c0,1-.7,1.57-2,1.57s-2-.56-2-1.57Z"/><path d="M425.6,234.31a53.59,53.59,0,0,1,6.09,2.55c2,1,2.39,1.43,2.39,2.44a2.08,2.08,0,0,1-1.92,2.22c-.56,0-.77-.11-2.65-1.14-.82-.47-2.43-1.18-3.91-1.83v9.6c0,1-.7,1.6-2,1.6s-2-.57-2-1.6V229.9c0-1,.7-1.59,2-1.59s2,.56,2,1.59Z"/><path d="M458.68,230.54c1.15,0,1.52.07,1.92.33a1.94,1.94,0,0,1,.87,1.7c0,2.37-4.45,7.55-8.11,10.13,1.53,1.71,2.63,3,2.63,4a2.37,2.37,0,0,1-2.35,2c-.53,0-.91-.21-1.4-.89a43.1,43.1,0,0,0-6.58-7.1c-1.1-.91-1.34-1.24-1.34-1.87a2.33,2.33,0,0,1,2.18-2.09c.82,0,1.5.63,4.31,3.21,2.51-1.61,5.44-5.15,5.44-5.58,0-.16-.12-.21-.57-.21h-13.4c-.93,0-1.47-.65-1.47-1.85s.54-1.82,1.47-1.82Z"/><path d="M475.55,232l-.19-1.86a3.39,3.39,0,0,1,0-.44c0-1,.75-1.62,2.06-1.62a1.51,1.51,0,0,1,1.76,1.55l.19,2,5.64-.59a1.63,1.63,0,0,1,1.9,1.81,1.5,1.5,0,0,1-1.55,1.73l-5.64.57.32,3.44,7-.68c.71-.07,2.06-.05,2.06,1.87a1.48,1.48,0,0,1-1.47,1.67l-7.19.7.56,5.74a3.54,3.54,0,0,1,0,.45c0,1-.72,1.61-2.06,1.61-1.12,0-1.62-.49-1.73-1.75l-.57-5.67-6.88.67c-1.15.12-2.07-.28-2.07-1.94a1.5,1.5,0,0,1,1.48-1.59l7.1-.71-.33-3.42-5.32.54c-1,.1-2.11-.16-2.11-1.85,0-1.08.45-1.55,1.62-1.66Z"/><path d="M504,231.71v-2c0-1,.7-1.57,2-1.57s1.95.56,1.95,1.57v2h4.83c2.1,0,3,.72,3,2.53a20.37,20.37,0,0,1-1.67,7.47,15.8,15.8,0,0,1-5.81,6.59c-1.75,1.14-3,1.68-3.89,1.68a2.09,2.09,0,0,1-2-2.2c0-.77.33-1.17,1.36-1.62,3.28-1.47,5.13-3,6.42-5.46a12.89,12.89,0,0,0,1.38-5c0-.37-.12-.44-.73-.44H500.62c-.45,0-.54.09-.54.6V239c0,1-.7,1.54-1.92,1.54s-1.94-.56-1.94-1.54v-4.5c0-2,.79-2.81,2.83-2.81Z"/><path d="M529.22,244.71v-7H524.7c-.84,0-1.33-.61-1.33-1.66s.46-1.69,1.33-1.69h12.7c.84,0,1.34.61,1.34,1.69s-.5,1.66-1.34,1.66h-4.62v7h5.56c.89,0,1.38.61,1.38,1.71s-.49,1.71-1.38,1.71h-14.6c-.89,0-1.36-.61-1.36-1.71s.49-1.71,1.36-1.71Z"/><path d="M564.7,231a2.12,2.12,0,0,1,.81,1.82c0,.71-.58,10.36-11,16a6.54,6.54,0,0,1-2.76,1,2.19,2.19,0,0,1-2.07-2.2c0-.94.43-1.38,1.93-2.06a15.76,15.76,0,0,0,7.85-6.75,13,13,0,0,0,1.56-4.17c0-.21-.11-.28-.49-.28H547.9c-1,0-1.5-.68-1.5-1.9s.54-1.87,1.5-1.87h14.59C563.52,230.47,564.27,230.52,564.7,231Zm2.6,1.69c-.47,0-.61-.15-1-.89-.22-.4-.66-1.15-1-1.6a1.2,1.2,0,0,1-.29-.7,1.34,1.34,0,0,1,1.36-1.17c.47,0,.73.23,1.29,1.05a5.07,5.07,0,0,1,1,2.09A1.3,1.3,0,0,1,567.3,232.65ZM570,231c-.46,0-.6-.14-1-.89a17.7,17.7,0,0,0-1-1.59,1.27,1.27,0,0,1-.28-.71,1.34,1.34,0,0,1,1.36-1.17c.47,0,.73.24,1.29,1.05a5.13,5.13,0,0,1,1,2.09A1.3,1.3,0,0,1,570,231Z"/></svg>