<svg id="レイヤー_1" data-name="レイヤー 1" xmlns="http://www.w3.org/2000/svg" viewBox="0 0 420 150"><defs><style>.cls-1{fill:#ebc028;}.cls-2{fill:#69b043;}.cls-3{fill:#1388b5;}.cls-4{fill:#d63b85;}</style></defs><title>logo_yoko_S</title><path class="cls-1" d="M85.64,58.36c3.56,8.59,3.07,21.26-2,33.91l11.23,4.86A35.6,35.6,0,0,0,85.64,58.36Z"/><path class="cls-2" d="M79.33,94l-10-4.31-6.91-3-13.41,31C58.79,120.31,71.81,110.19,79.33,94Z"/><path d="M42.63,78.09c-6.68,16.58-5.14,33,3.44,38.28l13.41-31Z"/><path d="M69.76,86.28,80.62,91c6.68-16.59,5.14-33-3.44-38.29l-13.41,31Z"/><path class="cls-3" d="M43.93,75.1l16.85,7.29,13.41-31C64.47,48.75,51.44,58.88,43.93,75.1Z"/><path class="cls-4" d="M39.64,76.79,28.41,71.93a35.6,35.6,0,0,0,9.2,38.77C34.05,102.12,34.54,89.44,39.64,76.79Z"/><path d="M64.26,49.11A35.59,35.59,0,0,0,29.71,68.94L40.94,73.8C46.66,61.43,55.57,52.39,64.26,49.11Z"/><path d="M59,120a35.57,35.57,0,0,0,34.55-19.83L82.31,95.26C76.59,107.64,67.68,116.67,59,120Z"/><path d="M37.11,136.15c-1.25,4.13-1.84,6.56-.85,7a.65.65,0,0,0,.27.05c1,0,2.28-2,4.25-5.45.53-.92,1.84-3.42,3.62-6.9-1.93.28-3.87.58-5.79.9C37.86,133.88,37.32,135.43,37.11,136.15Z"/><path d="M46.22,120.13c-.5-.22-1-.45-1.48-.69s-1-.48-1.41-.73c-.79,2.14-1.54,4.19-2.22,6.07,2.23-.34,4.51-.65,6.81-.89.43-.85.87-1.73,1.31-2.62-.5-.17-1-.34-1.5-.54S46.72,120.34,46.22,120.13Z"/><path d="M77,48.94c.5.21,1,.45,1.48.68s.95.48,1.41.73c3.19-8.63,5.68-15.64,6.22-17.44,1.25-4.12,1.84-6.56.85-7a.86.86,0,0,0-.27-.05c-1,0-2.28,2-4.25,5.45C81.53,33,78.13,39.56,74,47.79l1.5.54C76,48.52,76.53,48.72,77,48.94Z"/><path d="M74.07,34.2c-13.62,2.41-22.58,2-26.61-1.21a6.26,6.26,0,0,1-2.4-4.86C44.59,19,61.44,8.62,74.36,7.6a1.14,1.14,0,0,0,1-1.22,1.12,1.12,0,0,0-1.22-1c-15.76,1.25-31.89,13-31.39,22.9a8.54,8.54,0,0,0,3.26,6.52C50.67,38.44,60,39,74.47,36.43l1.81-.31,1.3-2.51Z"/><path d="M113.51,37.65c-2.24-5.13-9.57-7-23.71-5.66-.18.62-.37,1.24-.56,1.86a4.39,4.39,0,0,1-.14.45c10.76-1.11,20.18-.67,22.33,4.26a6.52,6.52,0,0,1-.54,6.91C107.24,50.39,96.66,52.84,83,52.2a39.82,39.82,0,0,1,3.22,2.37l1,0c12.42,0,21.76-2.75,25.49-7.76A8.77,8.77,0,0,0,113.51,37.65Z"/><path d="M34.49,113.53c-4-.12-8.47-.25-14.36,0-6.69.35-11.86,2.86-13.83,6.71a6.24,6.24,0,0,0,.28,6.36c2.37,3.64,8.33,5.49,16.33,5a129.24,129.24,0,0,0,13.89-1.8c11.1-1.83,22.58-3.72,33.08.07,13.86,5,17,13.51,17,13.59a1.14,1.14,0,0,0,1.07.77,1.19,1.19,0,0,0,.37-.06,1.14,1.14,0,0,0,.71-1.44c-.14-.39-3.41-9.6-18.37-15-11.05-4-23.36-2-34.22-.17a129.28,129.28,0,0,1-13.64,1.78c-7.07.38-12.42-1.12-14.31-4a3.94,3.94,0,0,1-.16-4.1c1.23-2.41,5-5.11,11.93-5.47,5.79-.3,10.25-.17,14.18-.06,1.52,0,3,.08,4.38.09q-1.5-1.09-2.88-2.31Z"/><path d="M172.92,70.28c1.43-.42,2.73-.59,3,.17.14.48.06.92.22,1.49s.44.8,1.3.55c1.24-.36,2.37-2.86,1.88-4.57-.56-1.91-2.61-2.56-5.94-1.59a23.25,23.25,0,0,0-5.8,2.82c1.66-6.37,1.75-7.84,3-9.65s1.36-2.77,1-3.92-1.26-1.49-2.5-1.13-2,1.62-3,4.37a119.92,119.92,0,0,0-3.51,13.53,17.85,17.85,0,0,1-2.85,1.24c-1.14.33-1.62-.25-3.05.16a2.49,2.49,0,0,0-1.79,3.1c.39,1.34,1.73,1.67,4.59.84a13.85,13.85,0,0,0,2-.67c-1.94,10.38-3.5,22.1-1.9,27.63.69,2.38,2.06,3.53,3.49,3.12a2.07,2.07,0,0,0,1.45-2.49c-.25-.86-1-1.17-1.32-2.41-1.44-5,.46-18,2.92-28.75A24.47,24.47,0,0,1,172.92,70.28Z"/><path d="M312.92,58.37c-.23,1.37-.08,3.51,1.09,3.71s4.05-.73,4.45-3.08c.33-2-.72-2.93-1.69-3.1A3.38,3.38,0,0,0,312.92,58.37Z"/><path d="M413.18,64.22c-5.3-2-11,.53-20.65,9a100,100,0,0,0-17.34,19.39c-.36.21-.74.46-1.15.74-4.83,3.49-13.91,9-22.26,6.4a2.88,2.88,0,0,1-2-3.73c.3-1,.57-1.49,2.39-1.34,6.29.5,16.25-2.44,17.75-7.27.56-1.8-1.06-4-2.86-4.52-4.76-1.48-12.08.09-18.69,7.6a24.85,24.85,0,0,0,4.08-8.44c1.61-6.56,1.4-10.7-1.59-11.43a2.42,2.42,0,0,0-3.15,2c-.4,1.64,1.42,3,1.64,4.18a12.22,12.22,0,0,1-.44,4.7c-1.72,7-8.07,14.16-12,13.2-1.93-.48-2-3.56-1-7.7,1.21-4.92,4.23-7.25,4.63-8.89s-1.24-2.44-2.2-2.68-2.53,1.12-3.86,3.24c-4.14,6-11.31,12.77-14.49,12-.68-.17-.75-.69-.54-1.56,1-4,7.8-12.2,8.41-14.71a3.09,3.09,0,0,0-1.75-2.88c-1.44-.35-2.57.09-4,2.82-.4.8-1.17,2.21-2.05,3.86l-.31.27c-4.32,4.1-12.57,10.06-15.41,9.58A1.82,1.82,0,0,1,303,85.77c.36-2.15,4.46-8.51,7.24-11.86,1.13-1.32,2.27-2.14,2.45-3.21s-1.07-2-1.95-2.14c-1.27-.22-2.42,1.2-3.81,2.87-.24.31-.77,1-1.46,2a10.29,10.29,0,0,0-1.85,1.74c-4,4.42-10.69,11.18-15.33,10.75-3.26-.29-5.07-3.45-5-4.63.07-.79,12.55-4.24,13.15-10.86.19-2.08-1.24-3.9-2.72-4-3.16-.29-7.69,1.29-15.14,7.59-1.51,1.26-2.27,1.89-2.57,1.86-.09,0-.09-.11-.08-.21.1-1.08,2.33-4.77,2.87-5.22,2.15-1.7,10.43-6.12,17.57-14.54s9.26-14.1,9.51-16.77c.16-1.78-1.92-4.06-3.7-4.22C297,34.36,290.27,41.12,285,49.51c-2.78,4.41-7.22,12.83-10.9,20.5a12.13,12.13,0,0,0-1.5,1.85c-3.53,4.87-9.31,11.39-12.88,11.49-.89,0-1.32-1.06-1.36-2.34A12.65,12.65,0,0,1,260,75.3c2-4,4.46-7.48,4.42-8.77s-1.05-2-2.64-2-2.12,2.15-2.92,2.17c-.39,0-2.24-2.22-4.13-2.17-3.35.14-7.1,2-10.35,4.73a1.41,1.41,0,0,0-.78-.1c-1.08.16-1.72,1.26-2.67,2.92-2.82,5.24-7.34,13.16-10.58,13.65-1.17.18-1.59-.56-1.8-1.93-.58-3.83,1-11.2.7-13.26a3.68,3.68,0,0,0-4.06-2.9c-3.14.48-7.86,5.11-10.41,10.12a38.45,38.45,0,0,0-.11-6c-.39-2.55-3.48-3.08-5.25-2.82-2.65.41-7.25,5.13-9.65,9.81.18-1.43,2-8.44,1.77-10.11-.22-1.47-1.46-1.69-2.63-1.51-.79.12-1.71,1.36-2.06,3.63-.21,1.27-.43,2.57-.67,3.89-1.39,1.05-4,3.56-7.23,4.34-1.54.38-2.08-1.84-2.27-2.61-.36-1.45-2.42-2.78-6-1.91-6.74,1.65-12.17,12.06-10,21,1,4.14,4.2,5.51,6.9,4.85,6.75-1.65,9.33-10.34,9.94-16.62a23.7,23.7,0,0,0,7.61-3.42c-1.29,7-2.5,13.11-2.35,14.06a2.24,2.24,0,0,0,2.39,1.84c1.47-.22,1.31-1.9,1.91-3.9a57.52,57.52,0,0,1,3.28-8.83c2.69-5.43,7.21-10,8.38-10.22a1.51,1.51,0,0,1,1.81,1.33c.45,3-2.26,14.81-2.08,16a3,3,0,0,0,2.81,2c.88-.14,1.44-1.73,2.08-4.13.89-4.06,7.34-15.78,10.48-16.26.79-.12,1.07.44,1.18,1.13s-1,8-.39,12c.51,3.34,2.46,5,5.11,4.55,2.09-.32,4.39-2.32,6.57-4.88v.15c.07,2.38,2.09,3.81,3.08,3.79,2.29-.07,5.31-2.14,9.86-6.34,2.13-2,3.66-4,4.26-4,.19,0,.2.29.22.88,0,.9-.14,2.29-.11,3.38a4.42,4.42,0,0,0,4.8,4.54c3.11-.09,7.22-3.2,11-6.94a24.7,24.7,0,0,0-1.68,5.19,2.48,2.48,0,0,0,2.32,3c1,.09,2.81-1.34,2.89-2.13.21-2.37,3.11-5.69,6.81-9.14,5.91-5.84,9.73-7.29,10.92-7.18A1.54,1.54,0,0,1,292,71.87c-.11,1.18-2.25,2.78-4.35,4-5,2.93-8.63,2.8-8.74,4-.19,2.18,2.75,9.22,8.09,9.71,4.05.37,8.25-2.15,12.06-5.35a9.93,9.93,0,0,0-.46,1.62c-.55,3.24,1.5,5.39,3.17,5.67,3.44.59,9.5-2.62,14.76-6.23a27.84,27.84,0,0,0-1.85,4.48,4.12,4.12,0,0,0,3.25,5.08c3.18.78,9.31-2.93,13.07-6.61-.58,4.05-.17,9.06,4.26,10.15,3.19.78,7.07-1.25,10.38-4.55a4,4,0,0,1-.19,1c-.94,3,.87,6.92,3.81,7.83,8.13,2.52,16.17-.5,22.28-3.84a55.85,55.85,0,0,0-2.65,5.88c-1.11,3-.45,3.75.48,4.1a3.93,3.93,0,0,0,3.94-2c.56-1.49,3.91-3.94,6.5-5.2,6.69-3.42,12.12-5.73,14.16-5A1.63,1.63,0,0,1,395,98.76c-1.67,4.46-9.93,10.37-13.65,9-.84-.32-.72-.91-2.3-1.5a2.13,2.13,0,0,0-2.83,1.06c-.56,1.48-.19,3.32,3,4.5,6.69,2.51,17.68-5,20.6-12.84.94-2.5.12-4.83-2.11-5.66-5.2-2-12.7,1.07-19,4.76-.93.5-1.63,1-2.19.77-.1,0,0-.22,0-.41.46-1.21,3.24-5.25,4.5-6,18.38-5.2,31.35-15.49,34.21-23.11A4,4,0,0,0,413.18,64.22Zm-48.36,22c.75.23,1.08.54.84,1.3-.62,2-9.76,5-13.1,4C354.69,89.73,361.88,85.32,364.82,86.23ZM288.64,51.34c4.67-7.45,9.76-13,12.13-12.75A1.22,1.22,0,0,1,302,40.1c-.09,1-2.35,6.06-8.06,12.92a75.2,75.2,0,0,1-13,12.07C281.13,64.8,284.19,58.6,288.64,51.34ZM177.86,96.7a2.63,2.63,0,0,1-3.09-2.21c-1.53-6.27,2.27-14.55,6.42-15.56a.25.25,0,0,1,.35.22c.1.38,0,1.22.23,2.19.31,1.25,1.87,1.38,1.94,1.67C184.42,85.9,181.62,95.78,177.86,96.7ZM242.08,84a1.13,1.13,0,0,1-1.22-1.15c-.14-4.87,8.33-14.44,12.6-14.56a1.07,1.07,0,0,1,1.12,1.16c0,1.09,1.71.75,1.73,1.24C256.35,72.42,243.77,84,242.08,84ZM411.2,69.2c-1.39,3.72-13.46,15-27.19,18.53a111,111,0,0,1,11.8-12.53c7.41-6.76,13-8.47,14.52-7.91A1.31,1.31,0,0,1,411.2,69.2Z"/><path d="M133.27,59.23c-4.21,2.77-8.51,5.75-12.81,7.56-3.62,1.53-4.94-.93-5.78,1.54s.55,3.78,2.19,4.17,3.56-1,5.37-1.78a101.33,101.33,0,0,0,13.4-7.88c1.67-1.1,3.23-2.1,4.71-3l-.85,2c-5.1,12.41-6.63,33.14-2.53,47.6a49.83,49.83,0,0,1-6.51,3c-2.15.78-2.81.71-4.53-.25a2.75,2.75,0,0,0-2.21-.25,2.51,2.51,0,0,0-1.68,2.93c1.39,3.82,6.51,2.49,8.75,1.68a45.35,45.35,0,0,0,8.05-4,2.91,2.91,0,0,0,1.82-.24,2.83,2.83,0,0,0,1.64-1.86,30.19,30.19,0,0,1,7-4.15c2.33-.85,4.83-1.23,5.24-.11a2.2,2.2,0,0,0,2.64,1.46c1.87-.68,2-2.22,1.5-3.71-.91-2.52-4.76-3.23-9.61-1.47a40.37,40.37,0,0,0-8.08,4.21c-3.8-10.44-1.63-34.37,2.49-43.36.71-1.53,2.61-4.13,1.87-6.18l0-.25c5.3-2.73,9.25-3.39,12.32-.48a2.16,2.16,0,0,0,3-3.13C153.13,46.17,143,52.81,133.27,59.23Z"/></svg>