<svg id="レイヤー_1" data-name="レイヤー 1" xmlns="http://www.w3.org/2000/svg" viewBox="0 0 800 430"><defs><style>.cls-1{fill:none;}.cls-2{fill:#ebc028;}.cls-3{fill:#69b043;}.cls-4{fill:#1388b5;}.cls-5{fill:#d63b85;}</style></defs><title>logo_slogan_yoko</title><rect class="cls-1" x="0.08" y="0.36" width="800" height="430"/><path class="cls-2" d="M192.42,147.7c5.93,14.28,5.11,35.37-3.38,56.42l18.69,8.08A59.21,59.21,0,0,0,192.42,147.7Z"/><path class="cls-3" d="M181.92,206.94l-16.56-7.17-11.49-5-22.31,51.57C147.74,250.78,169.41,233.93,181.92,206.94Z"/><path d="M120.86,180.52c-11.11,27.59-8.56,54.92,5.72,63.7l22.32-51.57Z"/><path d="M166,194.15,184.07,202c11.11-27.59,8.56-54.92-5.73-63.7L156,189.83Z"/><path class="cls-4" d="M123,175.54l28,12.14,22.32-51.57C157.19,131.71,135.52,148.55,123,175.54Z"/><path class="cls-5" d="M115.89,178.37,97.2,170.28a59.22,59.22,0,0,0,15.3,64.51C106.58,220.5,107.4,199.41,115.89,178.37Z"/><path d="M156.85,132.3a59.23,59.23,0,0,0-57.5,33L118,173.39C127.57,152.8,142.38,137.76,156.85,132.3Z"/><path d="M148.07,250.18a59.23,59.23,0,0,0,57.51-33l-18.69-8.09C177.36,229.69,162.54,244.72,148.07,250.18Z"/><path d="M111.67,277.13c-2.08,6.87-3.06,10.92-1.41,11.63a1.15,1.15,0,0,0,.44.09c1.62,0,3.81-3.39,7.08-9.07.88-1.53,3.06-5.7,6-11.48-3.22.46-6.43,1-9.63,1.49C112.91,273.35,112,275.94,111.67,277.13Z"/><path d="M126.83,250.47c-.83-.36-1.65-.75-2.46-1.14s-1.58-.8-2.35-1.21c-1.32,3.56-2.56,7-3.7,10.09,3.72-.57,7.51-1.08,11.34-1.49l2.18-4.35c-.83-.28-1.66-.57-2.49-.89S127.67,250.83,126.83,250.47Z"/><path d="M178.09,132c.84.36,1.65.75,2.46,1.14s1.58.8,2.36,1.21c5.3-14.36,9.44-26,10.35-29,2.08-6.87,3.05-10.91,1.4-11.63a1.12,1.12,0,0,0-.44-.09c-1.61,0-3.8,3.4-7.07,9.08-1.56,2.7-7.22,13.71-14.07,27.4.84.28,1.67.57,2.5.89S177.26,131.65,178.09,132Z"/><path d="M173.18,107.49c-22.68,4-37.58,3.33-44.29-2a10.44,10.44,0,0,1-4-8.1c-.78-15.25,27.26-32.45,48.75-34.16a1.89,1.89,0,0,0-.3-3.76c-26.21,2.08-53.06,21.67-52.22,38.12a14.2,14.2,0,0,0,5.41,10.85c7.7,6.12,23.16,7,47.29,2.78l3-.52c.78-1.52,1.5-2.92,2.16-4.18C177.1,106.82,175.19,107.14,173.18,107.49Z"/><path d="M238.8,113.23c-3.74-8.54-15.93-11.58-39.46-9.41-.29,1-.61,2.05-.92,3.09-.06.21-.15.47-.23.75,17.89-1.84,33.57-1.11,37.15,7.08,1.88,4.3,1.58,8.18-.9,11.51-6.08,8.18-23.68,12.26-46.37,11.19a64.39,64.39,0,0,1,5.36,3.95l1.63,0c20.65,0,36.2-4.56,42.41-12.91C240.77,124.06,241.23,118.78,238.8,113.23Z"/><path d="M107.32,239.49c-6.62-.19-14.11-.41-23.9.09-11.14.58-19.74,4.75-23,11.17a10.34,10.34,0,0,0,.47,10.58c3.93,6.06,13.84,9.13,27.16,8.4a213.57,213.57,0,0,0,23.11-3c18.48-3,37.58-6.19,55,.11,23.07,8.32,28.23,22.48,28.28,22.62a1.89,1.89,0,0,0,1.78,1.28,1.86,1.86,0,0,0,.61-.1,1.89,1.89,0,0,0,1.18-2.39c-.22-.65-5.66-16-30.56-25-18.39-6.63-38.87-3.26-56.94-.28a214.8,214.8,0,0,1-22.7,3c-11.76.63-20.66-1.87-23.8-6.7a6.51,6.51,0,0,1-.27-6.81c2-4,8.34-8.51,19.85-9.11,9.63-.5,17-.28,23.59-.09,2.53.07,4.93.12,7.29.14a59.73,59.73,0,0,1-4.79-3.85Z"/><path d="M337.65,167.52c2.38-.69,4.54-1,4.9.3.24.79.1,1.52.38,2.47s.73,1.33,2.16.92c2.06-.6,4-4.76,3.12-7.62-.92-3.17-4.33-4.24-9.88-2.63a38.09,38.09,0,0,0-9.64,4.69c2.76-10.61,2.91-13.06,5-16.06,2.32-3.25,2.28-4.62,1.72-6.52s-2.09-2.48-4.16-1.89-3.34,2.69-4.93,7.28c-2.29,6.34-3.65,12.93-5.85,22.51a29.11,29.11,0,0,1-4.74,2.06c-1.9.56-2.7-.42-5.08.27a4.14,4.14,0,0,0-3,5.17c.64,2.22,2.87,2.78,7.63,1.39a23.93,23.93,0,0,0,3.28-1.12c-3.23,17.27-5.83,36.77-3.16,46,1.15,4,3.43,5.89,5.81,5.2a3.45,3.45,0,0,0,2.41-4.14c-.42-1.43-1.6-1.94-2.2-4-2.39-8.24.76-30,4.86-47.84C330.25,171,334.17,168.53,337.65,167.52Z"/><path d="M570.61,147.71c-.38,2.28-.15,5.84,1.81,6.17s6.73-1.21,7.4-5.12c.55-3.25-1.19-4.89-2.82-5.16A5.61,5.61,0,0,0,570.61,147.71Z"/><path d="M737.43,157.44c-8.82-3.3-18.33.89-34.37,15a166.12,166.12,0,0,0-28.84,32.25c-.59.36-1.23.77-1.92,1.24-8,5.81-23.15,15-37,10.64a4.78,4.78,0,0,1-3.26-6.2c.49-1.58.94-2.48,4-2.23,10.46.83,27-4.06,29.52-12.1.93-3-1.75-6.6-4.75-7.53-7.93-2.46-20.1.16-31.1,12.65a41.57,41.57,0,0,0,6.79-14.05c2.67-10.9,2.32-17.79-2.65-19-3-.75-4.68,1.06-5.24,3.31-.66,2.73,2.35,5,2.72,7,.41,1.8,0,4.92-.72,7.81-2.87,11.71-13.43,23.58-20,22-3.21-.79-3.31-5.91-1.62-12.81,2-8.19,7-12.06,7.7-14.78s-2.06-4.08-3.67-4.47-4.2,1.86-6.42,5.4c-6.89,10-18.81,21.24-24.11,19.94-1.12-.27-1.24-1.15-.89-2.6,1.61-6.58,13-20.29,14-24.46.43-1.77-1.63-4.48-2.91-4.8-2.41-.59-4.29.14-6.59,4.68-.67,1.34-1.94,3.68-3.42,6.43-.17.16-.32.29-.51.45-7.18,6.83-20.92,16.73-25.65,15.93a3,3,0,0,1-2.37-3.75c.6-3.58,7.42-14.16,12-19.74,1.88-2.19,3.79-3.55,4.09-5.34s-1.78-3.32-3.25-3.56c-2.11-.36-4,2-6.34,4.79-.39.51-1.29,1.69-2.42,3.25a16.61,16.61,0,0,0-3.08,2.89c-6.64,7.36-17.79,18.61-25.52,17.9-5.43-.49-8.43-5.74-8.25-7.71.12-1.32,20.88-7.05,21.88-18.07.32-3.46-2.06-6.49-4.52-6.72-5.27-.48-12.8,2.15-25.2,12.63-2.52,2.09-3.77,3.13-4.26,3.09-.17,0-.16-.18-.14-.34.16-1.81,3.87-7.94,4.77-8.69,3.58-2.82,17.35-10.19,29.24-24.19C555,129.32,558.53,120,558.94,115.58c.27-3-3.2-6.76-6.16-7-8.72-.8-19.86,10.45-28.6,24.42-4.63,7.33-12,21.34-18.14,34.1a20.49,20.49,0,0,0-2.49,3.09c-5.88,8.1-15.49,19-21.44,19.11-1.48,0-2.2-1.75-2.26-3.9a21.12,21.12,0,0,1,2.71-9.49c3.29-6.71,7.42-12.44,7.36-14.59-.06-2-1.75-3.42-4.39-3.35-2.81.09-3.54,3.58-4.86,3.61-.66,0-3.74-3.69-6.87-3.61-5.58.23-11.83,3.25-17.22,7.87a2.42,2.42,0,0,0-1.31-.16c-1.79.27-2.85,2.1-4.44,4.85-4.68,8.73-12.21,21.9-17.6,22.72-2,.3-2.64-.93-3-3.22-1-6.37,1.68-18.63,1.15-22.06s-4.13-5.22-6.74-4.82c-5.23.8-13.08,8.5-17.32,16.84-.06-1.5.41-6.08-.19-10-.64-4.25-5.79-5.13-8.73-4.69-4.41.67-12.07,8.52-16.07,16.31.31-2.38,3.38-14,3-16.82-.38-2.45-2.44-2.8-4.39-2.51-1.31.2-2.83,2.27-3.43,6-.34,2.11-.71,4.28-1.1,6.48-2.33,1.75-6.7,5.92-12,7.22-2.57.63-3.47-3.06-3.78-4.34-.59-2.41-4-4.64-10-3.19-11.23,2.74-20.26,20.07-16.61,35,1.68,6.89,7,9.17,11.48,8.07C356.7,214.79,361,200.31,362,189.87a39.5,39.5,0,0,0,12.66-5.69c-2.15,11.59-4.15,21.82-3.91,23.4a3.75,3.75,0,0,0,4,3.07c2.45-.38,2.19-3.18,3.19-6.51a96.89,96.89,0,0,1,5.45-14.69c4.48-9,12-16.7,14-17a2.51,2.51,0,0,1,3,2.22c.74,4.9-3.77,24.63-3.48,26.6.28,1.79,3.05,3.54,4.69,3.29,1.47-.22,2.4-2.87,3.46-6.87,1.48-6.75,12.21-26.26,17.44-27.05,1.31-.2,1.78.73,2,1.87s-1.66,13.29-.64,20c.84,5.56,4.09,8.23,8.5,7.56,3.47-.52,7.31-3.86,10.93-8.11,0,.08,0,.16,0,.24.11,4,3.49,6.35,5.14,6.3,3.8-.1,8.82-3.55,16.39-10.54,3.54-3.4,6.09-6.61,7.09-6.64.33,0,.34.49.37,1.48,0,1.48-.22,3.8-.17,5.62.11,4.13,2.86,7.69,8,7.54s12-5.32,18.28-11.54c-1.62,4-2.65,7.08-2.79,8.63-.34,3.78,2.21,4.85,3.86,5s4.68-2.23,4.8-3.55c.36-3.94,5.18-9.47,11.34-15.21,9.84-9.72,16.19-12.12,18.17-11.94a2.55,2.55,0,0,1,2.06,2.84c-.18,2-3.74,4.63-7.24,6.64-8.24,4.88-14.35,4.65-14.53,6.63-.33,3.62,4.57,15.34,13.45,16.15,6.73.62,13.73-3.58,20.07-8.9a15.65,15.65,0,0,0-.77,2.7c-.91,5.38,2.5,9,5.27,9.44,5.72,1,15.82-4.36,24.57-10.38a46.4,46.4,0,0,0-3.08,7.45c-1.26,5.14,2.68,7.8,5.41,8.47,5.29,1.29,15.48-4.88,21.75-11-1,6.73-.29,15.06,7.08,16.87,5.32,1.3,11.76-2.07,17.28-7.57a7.44,7.44,0,0,1-.31,1.75c-1.57,5.05,1.44,11.52,6.33,13,13.52,4.2,26.91-.83,37.08-6.39a88.62,88.62,0,0,0-4.41,9.79c-1.86,5-.76,6.24.79,6.82s5.63-.89,6.55-3.36,6.52-6.56,10.83-8.64C693,214,702,210.12,705.39,211.39a2.7,2.7,0,0,1,1.85,3.52c-2.78,7.42-16.52,17.26-22.71,14.94-1.39-.52-1.19-1.51-3.82-2.49a3.55,3.55,0,0,0-4.72,1.76c-.93,2.47-.31,5.53,5,7.5,11.13,4.17,29.42-8.37,34.28-21.36,1.57-4.18.2-8-3.51-9.44-8.66-3.24-21.13,1.78-31.55,7.93-1.54.84-2.72,1.63-3.65,1.28-.16-.06,0-.37.08-.68.75-2,5.39-8.74,7.48-10.07,30.57-8.64,52.16-25.77,56.92-38.45A6.57,6.57,0,0,0,737.43,157.44ZM657,194.06c1.26.4,1.79.91,1.4,2.17-1,3.31-16.23,8.28-21.8,6.72C640.1,199.9,652.07,192.55,657,194.06ZM530.21,136c7.76-12.4,16.23-21.57,20.18-21.21a2,2,0,0,1,2.09,2.51c-.15,1.64-3.91,10.09-13.41,21.49a123.84,123.84,0,0,1-21.57,20.09C517.72,158.41,522.8,148.1,530.21,136ZM345.87,211.48c-2.09.51-4.44-.78-5.15-3.67-2.54-10.43,3.78-24.21,10.68-25.89a.44.44,0,0,1,.6.36,33.58,33.58,0,0,0,.38,3.65c.51,2.09,3.11,2.3,3.23,2.78C356.79,193.52,352.13,210,345.87,211.48Zm106.86-21a1.91,1.91,0,0,1-2-1.93c-.23-8.09,13.87-24,21-24.22a1.78,1.78,0,0,1,1.87,1.94c.05,1.81,2.85,1.24,2.87,2.06C476.48,171.09,455.54,190.35,452.73,190.43Zm281.41-24.7c-2.32,6.19-22.4,24.94-45.24,30.84a184.59,184.59,0,0,1,19.63-20.86c12.33-11.25,21.69-14.09,24.16-13.17A2.19,2.19,0,0,1,734.14,165.73Z"/><path d="M271.68,149.15c-7,4.6-14.17,9.55-21.32,12.57-6,2.55-8.23-1.55-9.61,2.56s.91,6.28,3.64,6.94,5.92-1.59,8.94-3c7.58-3.44,15.06-8.36,22.29-13.11,2.77-1.83,5.37-3.5,7.84-5-.46,1.1-.93,2.25-1.42,3.4-8.48,20.66-11,55.16-4.21,79.21a85.16,85.16,0,0,1-10.84,5c-3.57,1.3-4.67,1.17-7.53-.42a4.61,4.61,0,0,0-3.67-.43c-2,.74-3.47,3-2.79,4.89,2.31,6.36,10.82,4.14,14.54,2.79a75.63,75.63,0,0,0,13.4-6.64,5,5,0,0,0,3-.39,4.74,4.74,0,0,0,2.73-3.11c4.05-2.88,7.69-5.43,11.72-6.9,3.88-1.41,8.05-2,8.72-.19a3.67,3.67,0,0,0,4.41,2.44c3.1-1.13,3.4-3.7,2.49-6.18-1.52-4.19-7.93-5.37-16-2.43a67.49,67.49,0,0,0-13.44,7c-6.33-17.38-2.71-57.18,4.14-72.15,1.19-2.54,4.36-6.86,3.12-10.27,0-.16,0-.29-.05-.42,8.82-4.54,15.39-5.64,20.5-.81a3.59,3.59,0,0,0,4.94-5.21C304.72,127.41,287.92,138.46,271.68,149.15Z"/><path d="M403.43,240.22c-2.72,2-5.58,3.53-6.75,3.53a2,2,0,0,1-1.94-2.08c0-1.15.49-1.36,2.85-2.46a26.61,26.61,0,0,0,9.94-8.76c.84-1.39,1.07-1.76,2-1.76a2.15,2.15,0,0,1,2.2,1.9c0,1.57-3.09,5-4.35,6.21v11.87c0,1-.71,1.57-2,1.57s-2-.56-2-1.57Z"/><path d="M425.68,234.66a54.31,54.31,0,0,1,6.09,2.56c2,1,2.39,1.43,2.39,2.43a2.08,2.08,0,0,1-1.92,2.23c-.56,0-.77-.12-2.65-1.15-.82-.47-2.43-1.17-3.91-1.83v9.61c0,1-.7,1.59-2,1.59s-2-.56-2-1.59V230.26c0-1,.7-1.59,2-1.59s2,.56,2,1.59Z"/><path d="M458.76,230.89a3.18,3.18,0,0,1,1.93.33,2,2,0,0,1,.86,1.71c0,2.37-4.45,7.54-8.1,10.12,1.52,1.71,2.62,3,2.62,4a2.36,2.36,0,0,1-2.34,2c-.54,0-.92-.21-1.41-.89a43.1,43.1,0,0,0-6.58-7.1c-1.1-.92-1.34-1.24-1.34-1.88a2.33,2.33,0,0,1,2.18-2.08c.82,0,1.5.63,4.31,3.21,2.51-1.62,5.44-5.16,5.44-5.58,0-.16-.12-.21-.57-.21h-13.4c-.93,0-1.47-.66-1.47-1.85s.54-1.83,1.47-1.83Z"/><path d="M475.63,232.39l-.19-1.85a3.54,3.54,0,0,1,0-.45c0-1,.75-1.61,2.06-1.61,1.13,0,1.64.44,1.76,1.54l.19,2,5.64-.59a1.61,1.61,0,0,1,1.9,1.8,1.51,1.51,0,0,1-1.54,1.74l-5.65.56.33,3.44,7-.67c.7-.07,2.06-.05,2.06,1.87a1.48,1.48,0,0,1-1.48,1.66l-7.19.71.56,5.74a3.39,3.39,0,0,1,0,.44c0,1.05-.72,1.62-2.06,1.62-1.12,0-1.61-.49-1.73-1.76l-.57-5.67-6.88.68c-1.15.12-2.07-.28-2.07-1.94a1.5,1.5,0,0,1,1.48-1.6l7.1-.7-.33-3.42-5.32.54c-1,.09-2.1-.17-2.1-1.85,0-1.08.44-1.55,1.61-1.67Z"/><path d="M504.1,232.06v-2c0-1,.7-1.57,2-1.57s1.94.56,1.94,1.57v2h4.83c2.11,0,2.95.73,2.95,2.53a20.36,20.36,0,0,1-1.66,7.48,15.91,15.91,0,0,1-5.81,6.58c-1.76,1.15-3,1.69-3.89,1.69a2.09,2.09,0,0,1-2-2.21c0-.77.33-1.17,1.36-1.61,3.28-1.48,5.13-3.05,6.42-5.46a12.89,12.89,0,0,0,1.38-5c0-.38-.11-.45-.72-.45H500.7c-.44,0-.54.1-.54.61v3.16c0,1-.7,1.55-1.92,1.55s-1.94-.56-1.94-1.55v-4.5c0-2,.79-2.81,2.83-2.81Z"/><path d="M529.3,245.07v-7h-4.52c-.84,0-1.33-.61-1.33-1.67s.47-1.68,1.33-1.68h12.7c.84,0,1.34.61,1.34,1.68s-.5,1.67-1.34,1.67h-4.61v7h5.55c.89,0,1.38.61,1.38,1.71s-.49,1.71-1.38,1.71h-14.6c-.89,0-1.36-.61-1.36-1.71s.5-1.71,1.36-1.71Z"/><path d="M564.78,231.31a2.14,2.14,0,0,1,.82,1.83c0,.7-.59,10.36-11,16a6.54,6.54,0,0,1-2.76,1,2.19,2.19,0,0,1-2.06-2.2c0-.94.42-1.39,1.92-2.07a15.71,15.71,0,0,0,7.85-6.75,12.91,12.91,0,0,0,1.57-4.17c0-.21-.12-.28-.5-.28H548c-1,0-1.5-.68-1.5-1.89s.54-1.88,1.5-1.88h14.6A3.12,3.12,0,0,1,564.78,231.31Zm2.6,1.69c-.47,0-.61-.14-1-.89-.21-.4-.66-1.15-1-1.59a1.27,1.27,0,0,1-.28-.71,1.33,1.33,0,0,1,1.35-1.17c.47,0,.73.24,1.29,1.06a5,5,0,0,1,1,2.08A1.31,1.31,0,0,1,567.38,233Zm2.72-1.66c-.47,0-.61-.14-1-.89-.22-.39-.66-1.15-1-1.59a1.28,1.28,0,0,1-.29-.7,1.34,1.34,0,0,1,1.36-1.17c.47,0,.73.23,1.29,1a5,5,0,0,1,1,2.09A1.3,1.3,0,0,1,570.1,231.34Z"/><path d="M75.56,329.59v-4.18c0-2.12,1.48-3.3,4.14-3.3s4.08,1.18,4.08,3.3v4.18H93.91c4.44,0,6.21,1.53,6.21,5.32a42.72,42.72,0,0,1-3.5,15.69,33.36,33.36,0,0,1-12.2,13.83c-3.69,2.4-6.3,3.54-8.17,3.54A4.4,4.4,0,0,1,72,363.34c0-1.62.69-2.46,2.85-3.39,6.89-3.1,10.78-6.4,13.49-11.47A27.17,27.17,0,0,0,91.26,338c0-.78-.25-.93-1.53-.93H68.43c-.94,0-1.13.2-1.13,1.28v6.64c0,2.07-1.48,3.25-4,3.25s-4.08-1.18-4.08-3.25v-9.45c0-4.27,1.67-5.9,5.95-5.9Z"/><path d="M128.78,356.9V342.28h-9.5c-1.77,0-2.8-1.27-2.8-3.49s1-3.54,2.8-3.54H146c1.77,0,2.8,1.28,2.8,3.54s-1,3.49-2.8,3.49h-9.69V356.9h11.66c1.87,0,2.9,1.28,2.9,3.59s-1,3.59-2.9,3.59H117.27c-1.87,0-2.86-1.28-2.86-3.59s1-3.59,2.86-3.59Z"/><path d="M196.41,327c-1.58-2.27-1.77-2.52-1.77-3.15,0-1.19,1.47-2.37,3-2.37,1,0,1.47.35,2.5,1.73a7.15,7.15,0,0,1,1.68,3.29A1.82,1.82,0,0,1,201,328a4.46,4.46,0,0,1,1.72,3.83c0,1.48-1.23,21.75-23,33.51-2.51,1.33-4.38,2-5.81,2a4.61,4.61,0,0,1-4.33-4.63c0-2,.89-2.9,4-4.33,7.82-3.49,13.09-8,16.48-14.17,1.38-2.51,3.3-6.84,3.3-8.76,0-.44-.25-.58-1-.58H165.76c-2,0-3.15-1.43-3.15-4s1.13-3.93,3.15-3.93Zm10.08,2.46c-1,0-1.28-.3-2.16-1.88-.44-.83-1.38-2.41-2-3.34a2.62,2.62,0,0,1-.59-1.48,2.81,2.81,0,0,1,2.86-2.46c1,0,1.52.49,2.7,2.22,1.33,2,2.07,3.59,2.07,4.38A2.75,2.75,0,0,1,206.49,329.45Z"/><path d="M231.32,332a109.83,109.83,0,0,0-1.13,16.43,94.77,94.77,0,0,0,.64,11.32,14.89,14.89,0,0,1,.29,2.66c0,2-1.57,3.25-4.08,3.25s-3.79-1.14-4.18-3.84a99.83,99.83,0,0,1-.64-12,154.83,154.83,0,0,1,1.23-19.53c.64-5.21.89-7.08,4.53-7.08,2.56,0,4.13,1.23,4.13,3.19C232.11,326.69,231.81,328.8,231.32,332Zm25.29-.24c.89-.15,4.92-.74,5.56-.74,1.92,0,3.05,1.43,3.05,3.84,0,3.49-1.92,3.74-8.61,4.28-.05,3.64.15,8.06.35,11.56a31,31,0,0,1,6.44,3.79c1.58,1.13,2.16,2.21,2.16,3.59a3.94,3.94,0,0,1-3.73,4.18,3.43,3.43,0,0,1-2.07-.69c-.74-.54-2-1.67-3.05-2.31-.94,4.33-4.67,6.64-10.88,6.64-7.27,0-11.65-3.25-11.65-8.51,0-5.71,4.42-9.1,11.85-9.1a24.51,24.51,0,0,1,3.64.29c0-3-.19-5.95-.24-9.05-2,.1-4.08.2-6.2.2-5.51,0-7.38-.64-7.38-4.14,0-2.36,1-3.49,3.25-3.49.49,0,5,.2,6,.2,1.47,0,2.8-.05,4.23-.1-.05-1.58-.05-3.2-.1-4.77,0-2.86,1.09-3.94,3.79-3.94,2.9,0,3.64.84,3.64,4.08Zm-11.32,22.88c-2.65,0-4,.83-4,2.4s1.53,2.46,4.23,2.46c3.45,0,4.18-1.37,4.18-4A11.73,11.73,0,0,0,245.29,354.64Z"/><path d="M292.42,357.58c1.77,2,4,4.58,4,6.65a4.2,4.2,0,0,1-4.18,3.89c-1.23,0-1.87-.45-3-1.92a73.28,73.28,0,0,0-5.37-6.45,3.64,3.64,0,0,1-1.23-2.61,4.15,4.15,0,0,1,4.19-3.83C288.38,353.31,289.17,354,292.42,357.58Z"/><path d="M338.54,366.79c-9.75,0-15.9-6-15.9-15.55a25.65,25.65,0,0,1,6.79-16.58,22.76,22.76,0,0,1-6.2,1.48c-1.77,0-3-1.68-3-4.19,0-2.21.89-3.05,3.64-3.44a80.48,80.48,0,0,0,11.52-2.61,5.26,5.26,0,0,1,2-.49c2,0,3.73,2.06,3.73,4.48,0,1.47-.24,1.87-1.87,2.95a22.21,22.21,0,0,0-5,5.21c-3.1,4.23-4.38,7.83-4.38,12.16,0,5.8,3.24,9.2,8.85,9.2,9.1,0,11.51-8.86,11.51-19.93a57.1,57.1,0,0,0-.93-9.3,12.84,12.84,0,0,1-.25-1.87c0-1.82,1.87-3.24,4.14-3.24,1.77,0,2.5.63,3.15,2.8a53.13,53.13,0,0,0,8,15.3c1.08,1.43,1.37,2.07,1.37,3.05a4.1,4.1,0,0,1-3.93,4c-1.73,0-2.51-.69-4.13-3.6a22,22,0,0,1-1.43-2.56C356.3,363.1,346.26,366.79,338.54,366.79Z"/><path d="M385.21,325.66c0-1.92,2.06-3.6,4.47-3.6,2.17,0,3.15.79,3.64,2.91a93.2,93.2,0,0,0,3.6,12.1c2.51-1.28,10.72-5.07,13.33-5.07,2,0,3.59,2,3.59,4.48s-.74,2.76-7.14,4.87A76.21,76.21,0,0,0,392.83,348c-3.05,2.07-4.28,3.84-4.28,6.15,0,3.3,2.31,4.48,8.66,4.48a78.59,78.59,0,0,0,9.84-.69,30.39,30.39,0,0,1,4.18-.54c2,0,3.45,1.67,3.45,4.08a3.71,3.71,0,0,1-3.2,4,88.3,88.3,0,0,1-12.35.83,41.62,41.62,0,0,1-9.79-.83c-5.56-1.28-8.76-5.27-8.76-10.82,0-4.83,2-8.22,7.09-12.06a19.32,19.32,0,0,1,2.4-1.72C388.65,337.76,385.21,328.16,385.21,325.66Z"/><path d="M432.13,331.07c4.47-1.18,15.34-3.3,22.24-3.3,10.67,0,16.92,5.66,16.92,15.35a18.25,18.25,0,0,1-9.15,16c-4.77,2.76-12.4,4.92-17.42,4.92-2.56,0-4.18-1.77-4.18-4.57,0-2.32,1.13-3.35,4.08-3.69C450.13,355.12,463,353.6,463,343c0-4.87-3.1-7.67-8.56-7.67a54.84,54.84,0,0,0-10.33,1.28c-2.56.54-4,.93-9.79,2.61a14.12,14.12,0,0,1-3.64.73c-2,0-3.45-1.87-3.45-4.38S428.29,332.1,432.13,331.07Z"/><path d="M494.69,327a26.62,26.62,0,0,1-.5,3.14,95.45,95.45,0,0,0-1.72,17.76,73.36,73.36,0,0,0,.79,11.57,17.83,17.83,0,0,1,.35,3.24c0,2-1.83,3.35-4.48,3.35-3.59,0-4-2.56-4.48-9.64-.15-2.22-.2-4.29-.2-6.94a110.5,110.5,0,0,1,.84-14.22c1.08-9.89,1.62-11.17,4.92-11.17C492.67,324.08,494.69,325.36,494.69,327Zm12.05,22.58a3.88,3.88,0,0,1-.44,1.92,4.92,4.92,0,0,0-.49,2.11c0,2.31,2.31,3.15,8.7,3.15a39.62,39.62,0,0,0,6.7-.54,12.81,12.81,0,0,1,2.31-.25c2,0,3.24,1.48,3.24,3.84,0,3.54-1.77,4.67-12.19,4.67-5.67,0-16.34-.54-16.34-10.43a12.36,12.36,0,0,1,1.38-5.75,3.27,3.27,0,0,1,3.1-1.77C505.07,346.52,506.74,347.79,506.74,349.57Zm18.06-18.16c0,2.46-1,3.74-2.9,3.74-.35,0-.89,0-1.38,0a31.63,31.63,0,0,0-4.53-.24,77.75,77.75,0,0,0-10.92.63,10.94,10.94,0,0,1-2,.2c-1.92,0-3.05-1.38-3.05-3.64,0-3.89,2.26-4.08,6.64-4.43,3.15-.24,6-.34,8.91-.34C523.22,327.28,524.8,328,524.8,331.41Z"/><path d="M564.83,339.28c2.31-.24,5.22-.68,6.49-1a13.54,13.54,0,0,1,2-.25c1.87,0,3.1,1.48,3.1,3.69,0,3.2-1.72,3.74-11.56,4.48.1,2.31.15,3.64.19,5.12a45.21,45.21,0,0,1,11.32,5.11,3.71,3.71,0,0,1,1.92,3.2,4.06,4.06,0,0,1-3.84,4.09,3.92,3.92,0,0,1-2.26-.94,42.35,42.35,0,0,0-6.94-4.13c0,.1-.1.89-.2,1.57-.73,4.38-4.18,6.65-11.36,6.65-8.27,0-13.09-3.3-13.09-8.91,0-5.26,4.48-8.36,12.11-8.36,1,0,2.21,0,5,.24,0-.88-.09-2-.09-3.24-.3,0-6.15.24-8.27.24-3.69,0-4.67-.05-5.61-.84a3.63,3.63,0,0,1-1.28-2.85c0-2.36,1.18-3.49,3.6-3.49.19,0,6.59.19,7.87.19s2.4,0,3.59-.14c0-1.09,0-2.51,0-3.94-2,.15-4.43.2-7.68.2-6.39,0-8.71,0-8.71-3.54,0-2.46,1.19-3.84,3.35-3.84.94,0,5.61.34,6.64.34,2.07-.05,4.14-.1,6.2-.1,0-.83-.1-1.62-.1-2.61,0-2.9,1-4,3.84-4,3.89,0,3.89,2.12,3.89,3.25,0,.44,0,2.41,0,2.8,1.42-.19,8.66-1.42,8.86-1.42,1.77,0,3,1.52,3,3.64,0,3.05-1.32,3.73-9,4.42l-2.95.3Zm-12.2,16.34c-3.25,0-4.83.79-4.83,2.36s1.83,2.36,5.07,2.36c3.79,0,5-.78,4.87-4.18A23.22,23.22,0,0,0,552.63,355.62Z"/><path d="M601.81,325.66c0-1.92,2.06-3.6,4.48-3.6,2.16,0,3.14.79,3.64,2.91a92.78,92.78,0,0,0,3.59,12.1c2.51-1.28,10.72-5.07,13.33-5.07,2,0,3.59,2,3.59,4.48s-.74,2.76-7.13,4.87A76.33,76.33,0,0,0,609.43,348c-3,2.07-4.27,3.84-4.27,6.15,0,3.3,2.31,4.48,8.65,4.48a78.46,78.46,0,0,0,9.84-.69,30.57,30.57,0,0,1,4.18-.54c2,0,3.45,1.67,3.45,4.08a3.7,3.7,0,0,1-3.2,4,88.3,88.3,0,0,1-12.35.83,41.62,41.62,0,0,1-9.79-.83c-5.56-1.28-8.76-5.27-8.76-10.82,0-4.83,2-8.22,7.09-12.06a19.21,19.21,0,0,1,2.41-1.72C605.25,337.76,601.81,328.16,601.81,325.66Z"/><path d="M671.16,339.28c2.31-.24,5.22-.68,6.49-1a13.54,13.54,0,0,1,2-.25c1.87,0,3.1,1.48,3.1,3.69,0,3.2-1.72,3.74-11.56,4.48.1,2.31.15,3.64.19,5.12a45.21,45.21,0,0,1,11.32,5.11,3.71,3.71,0,0,1,1.92,3.2,4.06,4.06,0,0,1-3.84,4.09,3.94,3.94,0,0,1-2.26-.94,42.35,42.35,0,0,0-6.94-4.13c0,.1-.1.89-.2,1.57-.73,4.38-4.18,6.65-11.36,6.65-8.27,0-13.09-3.3-13.09-8.91,0-5.26,4.48-8.36,12.11-8.36,1,0,2.21,0,5,.24,0-.88-.09-2-.09-3.24-.3,0-6.15.24-8.27.24-3.69,0-4.67-.05-5.61-.84a3.63,3.63,0,0,1-1.28-2.85c0-2.36,1.18-3.49,3.6-3.49.19,0,6.59.19,7.87.19s2.41,0,3.59-.14c0-1.09,0-2.51,0-3.94-2,.15-4.43.2-7.68.2-6.39,0-8.71,0-8.71-3.54,0-2.46,1.19-3.84,3.35-3.84.94,0,5.61.34,6.64.34,2.07-.05,4.14-.1,6.2-.1,0-.83-.1-1.62-.1-2.61,0-2.9,1-4,3.84-4,3.89,0,3.89,2.12,3.89,3.25,0,.44,0,2.41,0,2.8,1.42-.19,8.66-1.42,8.86-1.42,1.77,0,3,1.52,3,3.64,0,3.05-1.32,3.73-9,4.42l-3,.3ZM659,355.62c-3.25,0-4.83.79-4.83,2.36s1.83,2.36,5.07,2.36c3.79,0,5-.78,4.87-4.18A23.22,23.22,0,0,0,659,355.62Z"/><path d="M733.38,351.09c0-4-3.2-6.39-8.47-6.39-9.29,0-14,4.33-19.13,9a3.28,3.28,0,0,1-2.51,1.13,4,4,0,0,1-3.84-4c0-1.87.54-2.32,3.94-4.92,6.25-4.72,14.75-11.91,15.94-12.94a10,10,0,0,1,1.87-1.48c-3.55.45-10.34,1-12.6,1-2.41,0-3.69-1.33-3.69-3.84s1.13-3.6,4-3.64a156.68,156.68,0,0,0,18.54-1,22.13,22.13,0,0,1,2.76-.2,3.65,3.65,0,0,1,3.64,3.79,3.61,3.61,0,0,1-1.82,3.25c-3.3,2.26-6.45,4.72-9.55,7.19-.59.44-1.23.88-2.46,1.67a23,23,0,0,1,7.48-1.33c8.52,0,13.88,4.87,13.88,12.64,0,9.4-8.12,15.55-20.62,15.55-8,0-12.84-3.05-12.84-8.17,0-4.57,4.18-7.92,9.84-7.92a11,11,0,0,1,10.87,7.73C731.75,356.65,733.38,354.19,733.38,351.09Zm-15.7,5.12c-1.82,0-2.8.64-2.8,1.87s1.72,2,5,2a20.21,20.21,0,0,0,2.9-.2A5.3,5.3,0,0,0,717.68,356.21Z"/></svg>