<svg id="レイヤー_1" data-name="レイヤー 1" xmlns="http://www.w3.org/2000/svg" viewBox="0 0 200 200"><defs><style>.cls-1{fill:#ebc028;}.cls-2{fill:#69b043;}.cls-3{fill:#1388b5;}.cls-4{fill:#d63b85;}</style></defs><title>logo_tate_S</title><path d="M51.77,169.37c.84-.24,1.6-.34,1.73.11.08.28,0,.54.13.87s.26.47.76.33A2.48,2.48,0,0,0,55.5,168c-.33-1.12-1.53-1.5-3.49-.93a13.44,13.44,0,0,0-3.41,1.65c1-3.74,1-4.61,1.75-5.67s.81-1.63.61-2.3-.74-.88-1.47-.67-1.18,1-1.74,2.57a70.47,70.47,0,0,0-2.07,8,9.22,9.22,0,0,1-1.67.73c-.67.2-1-.15-1.8.1a1.46,1.46,0,0,0-1.05,1.82c.23.79,1,1,2.7.5a9.94,9.94,0,0,0,1.16-.4c-1.14,6.1-2.06,13-1.12,16.24.41,1.4,1.21,2.08,2.05,1.84a1.22,1.22,0,0,0,.86-1.46c-.15-.51-.57-.69-.78-1.42-.85-2.91.27-10.59,1.72-16.9A14.47,14.47,0,0,1,51.77,169.37Z"/><path d="M134.08,162.38c-.14.8-.06,2.06.63,2.17a2.52,2.52,0,0,0,2.62-1.8c.19-1.15-.42-1.73-1-1.83A2,2,0,0,0,134.08,162.38Z"/><path d="M193,165.81c-3.11-1.16-6.47.32-12.14,5.3a59,59,0,0,0-10.19,11.39l-.68.44c-2.83,2.05-8.17,5.28-13.08,3.76a1.69,1.69,0,0,1-1.15-2.19c.17-.56.33-.87,1.4-.79,3.7.3,9.55-1.43,10.44-4.27a2.41,2.41,0,0,0-1.68-2.66c-2.8-.87-7.11.05-11,4.47a14.73,14.73,0,0,0,2.4-5c.94-3.85.82-6.28-.94-6.71a1.42,1.42,0,0,0-1.85,1.17c-.23,1,.83,1.76,1,2.45a7,7,0,0,1-.25,2.76c-1,4.14-4.75,8.33-7.07,7.77-1.14-.28-1.17-2.09-.58-4.53.71-2.89,2.49-4.26,2.72-5.22s-.72-1.44-1.29-1.58-1.48.66-2.27,1.91c-2.43,3.55-6.65,7.5-8.52,7-.39-.09-.44-.41-.31-.92.57-2.32,4.58-7.17,4.94-8.64a1.81,1.81,0,0,0-1-1.69c-.85-.21-1.51.05-2.32,1.65-.24.47-.69,1.3-1.21,2.27l-.18.16c-2.54,2.41-7.4,5.91-9.07,5.63a1.08,1.08,0,0,1-.84-1.33c.22-1.26,2.62-5,4.26-7,.66-.78,1.34-1.25,1.44-1.89s-.63-1.17-1.14-1.26c-.75-.12-1.43.71-2.24,1.7-.14.18-.46.59-.86,1.15a5.82,5.82,0,0,0-1.09,1c-2.35,2.59-6.28,6.57-9,6.32a3.29,3.29,0,0,1-2.92-2.73c0-.46,7.38-2.49,7.73-6.38a2.14,2.14,0,0,0-1.6-2.37c-1.86-.17-4.52.76-8.9,4.46-.89.74-1.33,1.11-1.51,1.09s0-.06,0-.12a10.12,10.12,0,0,1,1.68-3.07c1.27-1,6.13-3.6,10.33-8.55s5.45-8.29,5.59-9.86a2.72,2.72,0,0,0-2.17-2.48c-3.08-.28-7,3.69-10.11,8.63-1.63,2.59-4.24,7.54-6.41,12.05a7.37,7.37,0,0,0-.88,1.09c-2.08,2.86-5.47,6.69-7.57,6.75-.53,0-.78-.62-.8-1.38a7.41,7.41,0,0,1,1-3.35c1.16-2.37,2.62-4.4,2.6-5.16S105,166,104,166s-1.24,1.26-1.71,1.28c-.23,0-1.32-1.31-2.43-1.28a10.58,10.58,0,0,0-6.08,2.78,1,1,0,0,0-.47-.06c-.63.1-1,.75-1.56,1.72-1.66,3.08-4.32,7.74-6.22,8-.69.1-.94-.33-1.06-1.14-.34-2.25.59-6.58.41-7.8a2.16,2.16,0,0,0-2.39-1.7c-1.84.28-4.62,3-6.12,6a22.93,22.93,0,0,0-.06-3.53c-.23-1.5-2-1.82-3.09-1.66-1.55.24-4.26,3-5.67,5.76.11-.84,1.19-5,1-5.94s-.86-1-1.55-.89c-.46.07-1,.81-1.21,2.14-.12.74-.25,1.51-.39,2.29a12.09,12.09,0,0,1-4.25,2.55c-.91.22-1.23-1.08-1.34-1.54-.21-.85-1.42-1.63-3.52-1.12-4,1-7.16,7.09-5.87,12.36.6,2.44,2.47,3.24,4.06,2.85,4-1,5.48-6.08,5.84-9.77a13.8,13.8,0,0,0,4.48-2c-.76,4.1-1.47,7.71-1.39,8.27a1.33,1.33,0,0,0,1.41,1.08c.86-.13.77-1.12,1.13-2.29a33.37,33.37,0,0,1,1.92-5.2c1.58-3.19,4.24-5.9,4.93-6a.87.87,0,0,1,1.06.78c.27,1.73-1.33,8.7-1.22,9.4a1.73,1.73,0,0,0,1.65,1.16c.52-.08.85-1,1.23-2.43.52-2.38,4.31-9.27,6.16-9.55.46-.07.63.26.69.66s-.59,4.69-.23,7.06c.3,2,1.45,2.91,3,2.67,1.22-.19,2.58-1.36,3.86-2.87v.09a2.28,2.28,0,0,0,1.81,2.23c1.34,0,3.12-1.26,5.79-3.73,1.25-1.2,2.16-2.34,2.51-2.35.11,0,.12.18.13.53,0,.52-.08,1.34-.06,2a2.6,2.6,0,0,0,2.82,2.67c1.82,0,4.24-1.88,6.46-4.08a14.23,14.23,0,0,0-1,3,1.45,1.45,0,0,0,1.36,1.76,2.12,2.12,0,0,0,1.7-1.25c.13-1.39,1.83-3.35,4-5.37,3.47-3.44,5.72-4.29,6.42-4.22a.89.89,0,0,1,.72,1c-.06.7-1.32,1.64-2.55,2.35-2.91,1.72-5.07,1.64-5.14,2.34-.12,1.28,1.62,5.42,4.75,5.71,2.38.21,4.86-1.27,7.1-3.15a5.55,5.55,0,0,0-.28,1,2.77,2.77,0,0,0,1.87,3.33c2,.34,5.58-1.54,8.68-3.67a16.36,16.36,0,0,0-1.09,2.64,2.43,2.43,0,0,0,1.91,3c1.87.46,5.47-1.73,7.68-3.89-.34,2.38-.1,5.32,2.51,6,1.87.46,4.15-.73,6.1-2.67a2.39,2.39,0,0,1-.11.62,3.85,3.85,0,0,0,2.24,4.6c4.78,1.48,9.5-.29,13.1-2.26a32.24,32.24,0,0,0-1.56,3.46c-.65,1.75-.27,2.21.28,2.41a2.3,2.3,0,0,0,2.32-1.19c.32-.87,2.3-2.31,3.82-3,3.93-2,7.12-3.38,8.32-2.92a1,1,0,0,1,.66,1.24c-1,2.62-5.84,6.1-8,5.28-.5-.19-.43-.53-1.36-.88a1.24,1.24,0,0,0-1.66.62c-.33.87-.11,2,1.75,2.65,3.93,1.47,10.39-3,12.11-7.55a2.41,2.41,0,0,0-1.24-3.33c-3.06-1.15-7.47.63-11.15,2.8-.54.29-1,.57-1.29.45-.05,0,0-.13,0-.24a12.68,12.68,0,0,1,2.64-3.56c10.81-3.05,18.43-9.1,20.11-13.58A2.32,2.32,0,0,0,193,165.81Zm-28.43,12.94c.45.14.64.32.5.77-.36,1.17-5.74,2.92-7.7,2.37C158.63,180.81,162.86,178.22,164.58,178.75ZM119.8,158.24c2.74-4.38,5.73-7.62,7.13-7.49a.71.71,0,0,1,.74.88c0,.59-1.38,3.57-4.74,7.6a44.09,44.09,0,0,1-7.62,7.1C115.39,166.16,117.18,162.51,119.8,158.24ZM54.67,184.91a1.55,1.55,0,0,1-1.82-1.3c-.9-3.68,1.34-8.55,3.78-9.15a.16.16,0,0,1,.21.13,9.71,9.71,0,0,0,.13,1.29c.18.74,1.1.81,1.14,1C58.53,178.56,56.88,184.37,54.67,184.91Zm37.76-7.44a.67.67,0,0,1-.72-.68c-.08-2.86,4.9-8.49,7.4-8.56a.63.63,0,0,1,.67.68c0,.65,1,.44,1,.73C100.82,170.64,93.42,177.44,92.43,177.47Zm99.42-8.73c-.81,2.19-7.91,8.81-16,10.9a64.55,64.55,0,0,1,6.94-7.37c4.35-4,7.66-5,8.53-4.65A.76.76,0,0,1,191.85,168.74Z"/><path d="M37.77,188.32A24.49,24.49,0,0,0,33,190.79c-2.23-6.14-1-20.2,1.47-25.49.42-.9,1.54-2.42,1.1-3.63,0-.06,0-.1,0-.15,3.12-1.6,5.44-2,7.24-.28a1.27,1.27,0,1,0,1.75-1.84c-4.43-4.2-10.36-.29-16.1,3.48a59.79,59.79,0,0,1-7.53,4.45c-4.91,2.22-9.42,1.08-11.21-2.85-2.73-6,1.28-18.55,23.5-28.76S68.7,125.73,84,126l3,.06a43.34,43.34,0,0,1-4.06-2.62c-15.1-.3-28.43-.31-50.73,9.93C21.89,138.13,14.22,144,10,150.34c-3.59,5.39-4.54,10.93-2.59,15.19A9.2,9.2,0,0,0,16.14,171,14.27,14.27,0,0,0,22,169.64,60.37,60.37,0,0,0,29.85,165c1-.64,1.9-1.23,2.77-1.78l-.5,1.2c-3,7.3-3.9,19.49-1.49,28a30.72,30.72,0,0,1-3.83,1.77,2.48,2.48,0,0,1-2.66-.15,1.62,1.62,0,0,0-1.3-.15,1.47,1.47,0,0,0-1,1.72c.81,2.25,3.82,1.47,5.14,1a26.7,26.7,0,0,0,4.73-2.34,1.74,1.74,0,0,0,1.07-.14,1.69,1.69,0,0,0,1-1.1,17.92,17.92,0,0,1,4.14-2.44c1.37-.5,2.84-.72,3.08-.07a1.3,1.3,0,0,0,1.55.87,1.53,1.53,0,0,0,.89-2.19C42.89,187.7,40.62,187.28,37.77,188.32Z"/><path d="M91,33.28c5.14,4.1,15.48,4.71,31.61,1.86l2-.34c.52-1,1-2,1.45-2.81-1.26.2-2.54.42-3.88.65C107,35.32,97,34.87,92.53,31.3a7,7,0,0,1-2.67-5.41C89.34,15.7,108.08,4.21,122.44,3.07a1.26,1.26,0,0,0,1.16-1.36A1.27,1.27,0,0,0,122.24.54C104.71,1.93,86.77,15,87.33,26A9.47,9.47,0,0,0,91,33.28Z"/><path d="M136.75,55.33c13.81,0,24.2-3,28.35-8.63,2.21-3,2.51-6.5.89-10.22-1.87-4.26-6.76-8.06-26.37-6.27-.19.65-.38,1.32-.61,2.06,0,.14-.09.31-.15.49,11.95-1.22,22.41-.73,24.8,4.74,1.26,2.87,1.06,5.46-.6,7.69-4.06,5.46-15.81,8.2-31,7.49,1.24.82,2.44,1.7,3.58,2.63Z"/><path class="cls-1" d="M132.72,97.23l12.49,5.41A39.58,39.58,0,0,0,135,59.52C139,69.07,138.4,83.17,132.72,97.23Z"/><path class="cls-2" d="M94.3,125.48c10.82,2.94,25.3-8.32,33.66-26.36L109.22,91Z"/><path d="M87.15,81.46C79.72,99.9,81.43,118.17,91,124l14.91-34.47Z"/><path d="M129.4,95.8c7.43-18.45,5.72-36.71-3.83-42.58L110.66,87.68Z"/><path class="cls-3" d="M122.25,51.78C111.43,48.84,97,60.1,88.59,78.14l18.74,8.11Z"/><path class="cls-4" d="M83.83,80l-12.49-5.4a39.58,39.58,0,0,0,10.23,43.11C77.61,108.19,78.15,94.09,83.83,80Z"/><path d="M111.21,49.23A39.59,39.59,0,0,0,72.78,71.29L85.27,76.7C91.64,62.93,101.54,52.88,111.21,49.23Z"/><path d="M105.34,128A39.6,39.6,0,0,0,143.78,106l-12.5-5.4C124.92,114.32,115,124.37,105.34,128Z"/><path d="M125.41,49c.55.24,1.1.5,1.64.76s1.06.53,1.58.81c3.54-9.6,6.31-17.39,6.91-19.39,1.39-4.59,2-7.3.94-7.77a.72.72,0,0,0-.29-.06c-1.08,0-2.54,2.27-4.73,6.06-1,1.81-4.83,9.17-9.4,18.32.56.19,1.11.38,1.67.59S124.85,48.8,125.41,49Z"/><path d="M91.15,128.21c-.56-.24-1.11-.5-1.65-.76s-1-.53-1.57-.81C84.39,136.24,81.61,144,81,146c-1.39,4.59-2,7.29-.94,7.77a.77.77,0,0,0,.3.06c1.07,0,2.54-2.27,4.72-6.07,1-1.81,4.83-9.16,9.4-18.31-.55-.19-1.11-.39-1.66-.6S91.7,128.45,91.15,128.21Z"/></svg>